<?xml version="1.0" encoding="utf-8" standalone="no"?>
<!DOCTYPE svg PUBLIC "-//W3C//DTD SVG 1.1//EN"
  "http://www.w3.org/Graphics/SVG/1.1/DTD/svg11.dtd">
<svg xmlns:xlink="http://www.w3.org/1999/xlink" width="460.8pt" height="345.6pt" viewBox="0 0 460.8 345.6" xmlns="http://www.w3.org/2000/svg" version="1.1">
 <metadata>
  <rdf:RDF xmlns:dc="http://purl.org/dc/elements/1.1/" xmlns:cc="http://creativecommons.org/ns#" xmlns:rdf="http://www.w3.org/1999/02/22-rdf-syntax-ns#">
   <cc:Work>
    <dc:type rdf:resource="http://purl.org/dc/dcmitype/StillImage"/>
    <dc:date>2024-11-25T14:34:46.236621</dc:date>
    <dc:format>image/svg+xml</dc:format>
    <dc:creator>
     <cc:Agent>
      <dc:title>Matplotlib v3.9.2, https://matplotlib.org/</dc:title>
     </cc:Agent>
    </dc:creator>
   </cc:Work>
  </rdf:RDF>
 </metadata>
 <defs>
  <style type="text/css">*{stroke-linejoin: round; stroke-linecap: butt}</style>
 </defs>
 <g id="figure_1">
  <g id="patch_1">
   <path d="M 0 345.6 
L 460.8 345.6 
L 460.8 0 
L 0 0 
z
" style="fill: #ffffff"/>
  </g>
  <g id="axes_1">
   <g id="patch_2">
    <path d="M 57.17 303.64 
L 450 303.64 
L 450 10.8 
L 57.17 10.8 
z
" style="fill: #ffffff"/>
   </g>
   <g id="patch_3">
    <path d="M 75.025909 303.64 
L 134.545606 303.64 
L 134.545606 298.112762 
L 75.025909 298.112762 
z
" clip-path="url(#pb2bba1fd12)" style="fill: #1f77b4"/>
   </g>
   <g id="patch_4">
    <path d="M 149.42553 303.64 
L 208.945227 303.64 
L 208.945227 303.64 
L 149.42553 303.64 
z
" clip-path="url(#pb2bba1fd12)" style="fill: #1f77b4"/>
   </g>
   <g id="patch_5">
    <path d="M 223.825152 303.64 
L 283.344848 303.64 
L 283.344848 303.64 
L 223.825152 303.64 
z
" clip-path="url(#pb2bba1fd12)" style="fill: #1f77b4"/>
   </g>
   <g id="patch_6">
    <path d="M 298.224773 303.64 
L 357.74447 303.64 
L 357.74447 303.64 
L 298.224773 303.64 
z
" clip-path="url(#pb2bba1fd12)" style="fill: #1f77b4"/>
   </g>
   <g id="patch_7">
    <path d="M 372.624394 303.64 
L 432.144091 303.64 
L 432.144091 113.180576 
L 372.624394 113.180576 
z
" clip-path="url(#pb2bba1fd12)" style="fill: #1f77b4"/>
   </g>
   <g id="patch_8">
    <path d="M 75.025909 298.112762 
L 134.545606 298.112762 
L 134.545606 297.421857 
L 75.025909 297.421857 
z
" clip-path="url(#pb2bba1fd12)" style="fill: #ff7f0e"/>
   </g>
   <g id="patch_9">
    <path d="M 149.42553 303.64 
L 208.945227 303.64 
L 208.945227 303.64 
L 149.42553 303.64 
z
" clip-path="url(#pb2bba1fd12)" style="fill: #ff7f0e"/>
   </g>
   <g id="patch_10">
    <path d="M 223.825152 303.64 
L 283.344848 303.64 
L 283.344848 301.106682 
L 223.825152 301.106682 
z
" clip-path="url(#pb2bba1fd12)" style="fill: #ff7f0e"/>
   </g>
   <g id="patch_11">
    <path d="M 298.224773 303.64 
L 357.74447 303.64 
L 357.74447 294.197634 
L 298.224773 294.197634 
z
" clip-path="url(#pb2bba1fd12)" style="fill: #ff7f0e"/>
   </g>
   <g id="patch_12">
    <path d="M 372.624394 113.180576 
L 432.144091 113.180576 
L 432.144091 40.635572 
L 372.624394 40.635572 
z
" clip-path="url(#pb2bba1fd12)" style="fill: #ff7f0e"/>
   </g>
   <g id="patch_13">
    <path d="M 75.025909 297.421857 
L 134.545606 297.421857 
L 134.545606 297.421857 
L 75.025909 297.421857 
z
" clip-path="url(#pb2bba1fd12)" style="fill: #2ca02c"/>
   </g>
   <g id="patch_14">
    <path d="M 149.42553 303.64 
L 208.945227 303.64 
L 208.945227 303.64 
L 149.42553 303.64 
z
" clip-path="url(#pb2bba1fd12)" style="fill: #2ca02c"/>
   </g>
   <g id="patch_15">
    <path d="M 223.825152 301.106682 
L 283.344848 301.106682 
L 283.344848 290.052206 
L 223.825152 290.052206 
z
" clip-path="url(#pb2bba1fd12)" style="fill: #2ca02c"/>
   </g>
   <g id="patch_16">
    <path d="M 298.224773 294.197634 
L 357.74447 294.197634 
L 357.74447 283.143158 
L 298.224773 283.143158 
z
" clip-path="url(#pb2bba1fd12)" style="fill: #2ca02c"/>
   </g>
   <g id="patch_17">
    <path d="M 372.624394 40.635572 
L 432.144091 40.635572 
L 432.144091 40.635572 
L 372.624394 40.635572 
z
" clip-path="url(#pb2bba1fd12)" style="fill: #2ca02c"/>
   </g>
   <g id="patch_18">
    <path d="M 75.025909 297.421857 
L 134.545606 297.421857 
L 134.545606 297.421857 
L 75.025909 297.421857 
z
" clip-path="url(#pb2bba1fd12)" style="fill: #d62728"/>
   </g>
   <g id="patch_19">
    <path d="M 149.42553 303.64 
L 208.945227 303.64 
L 208.945227 303.64 
L 149.42553 303.64 
z
" clip-path="url(#pb2bba1fd12)" style="fill: #d62728"/>
   </g>
   <g id="patch_20">
    <path d="M 223.825152 290.052206 
L 283.344848 290.052206 
L 283.344848 289.591602 
L 223.825152 289.591602 
z
" clip-path="url(#pb2bba1fd12)" style="fill: #d62728"/>
   </g>
   <g id="patch_21">
    <path d="M 298.224773 283.143158 
L 357.74447 283.143158 
L 357.74447 282.682554 
L 298.224773 282.682554 
z
" clip-path="url(#pb2bba1fd12)" style="fill: #d62728"/>
   </g>
   <g id="patch_22">
    <path d="M 372.624394 40.635572 
L 432.144091 40.635572 
L 432.144091 40.635572 
L 372.624394 40.635572 
z
" clip-path="url(#pb2bba1fd12)" style="fill: #d62728"/>
   </g>
   <g id="patch_23">
    <path d="M 75.025909 297.421857 
L 134.545606 297.421857 
L 134.545606 297.421857 
L 75.025909 297.421857 
z
" clip-path="url(#pb2bba1fd12)" style="fill: #9467bd"/>
   </g>
   <g id="patch_24">
    <path d="M 149.42553 303.64 
L 208.945227 303.64 
L 208.945227 303.64 
L 149.42553 303.64 
z
" clip-path="url(#pb2bba1fd12)" style="fill: #9467bd"/>
   </g>
   <g id="patch_25">
    <path d="M 223.825152 289.591602 
L 283.344848 289.591602 
L 283.344848 289.130999 
L 223.825152 289.130999 
z
" clip-path="url(#pb2bba1fd12)" style="fill: #9467bd"/>
   </g>
   <g id="patch_26">
    <path d="M 298.224773 282.682554 
L 357.74447 282.682554 
L 357.74447 282.221951 
L 298.224773 282.221951 
z
" clip-path="url(#pb2bba1fd12)" style="fill: #9467bd"/>
   </g>
   <g id="patch_27">
    <path d="M 372.624394 40.635572 
L 432.144091 40.635572 
L 432.144091 37.641652 
L 372.624394 37.641652 
z
" clip-path="url(#pb2bba1fd12)" style="fill: #9467bd"/>
   </g>
   <g id="patch_28">
    <path d="M 75.025909 297.421857 
L 134.545606 297.421857 
L 134.545606 297.421857 
L 75.025909 297.421857 
z
" clip-path="url(#pb2bba1fd12)" style="fill: #8c564b"/>
   </g>
   <g id="patch_29">
    <path d="M 149.42553 303.64 
L 208.945227 303.64 
L 208.945227 303.64 
L 149.42553 303.64 
z
" clip-path="url(#pb2bba1fd12)" style="fill: #8c564b"/>
   </g>
   <g id="patch_30">
    <path d="M 223.825152 289.130999 
L 283.344848 289.130999 
L 283.344848 288.900698 
L 223.825152 288.900698 
z
" clip-path="url(#pb2bba1fd12)" style="fill: #8c564b"/>
   </g>
   <g id="patch_31">
    <path d="M 298.224773 282.221951 
L 357.74447 282.221951 
L 357.74447 281.99165 
L 298.224773 281.99165 
z
" clip-path="url(#pb2bba1fd12)" style="fill: #8c564b"/>
   </g>
   <g id="patch_32">
    <path d="M 372.624394 37.641652 
L 432.144091 37.641652 
L 432.144091 37.641652 
L 372.624394 37.641652 
z
" clip-path="url(#pb2bba1fd12)" style="fill: #8c564b"/>
   </g>
   <g id="patch_33">
    <path d="M 75.025909 297.421857 
L 134.545606 297.421857 
L 134.545606 297.421857 
L 75.025909 297.421857 
z
" clip-path="url(#pb2bba1fd12)" style="fill: #e377c2"/>
   </g>
   <g id="patch_34">
    <path d="M 149.42553 303.64 
L 208.945227 303.64 
L 208.945227 303.64 
L 149.42553 303.64 
z
" clip-path="url(#pb2bba1fd12)" style="fill: #e377c2"/>
   </g>
   <g id="patch_35">
    <path d="M 223.825152 288.900698 
L 283.344848 288.900698 
L 283.344848 288.670396 
L 223.825152 288.670396 
z
" clip-path="url(#pb2bba1fd12)" style="fill: #e377c2"/>
   </g>
   <g id="patch_36">
    <path d="M 298.224773 281.99165 
L 357.74447 281.99165 
L 357.74447 281.761348 
L 298.224773 281.761348 
z
" clip-path="url(#pb2bba1fd12)" style="fill: #e377c2"/>
   </g>
   <g id="patch_37">
    <path d="M 372.624394 37.641652 
L 432.144091 37.641652 
L 432.144091 37.641652 
L 372.624394 37.641652 
z
" clip-path="url(#pb2bba1fd12)" style="fill: #e377c2"/>
   </g>
   <g id="patch_38">
    <path d="M 75.025909 297.421857 
L 134.545606 297.421857 
L 134.545606 297.421857 
L 75.025909 297.421857 
z
" clip-path="url(#pb2bba1fd12)" style="fill: #7f7f7f"/>
   </g>
   <g id="patch_39">
    <path d="M 149.42553 303.64 
L 208.945227 303.64 
L 208.945227 303.64 
L 149.42553 303.64 
z
" clip-path="url(#pb2bba1fd12)" style="fill: #7f7f7f"/>
   </g>
   <g id="patch_40">
    <path d="M 223.825152 288.670396 
L 283.344848 288.670396 
L 283.344848 287.74919 
L 223.825152 287.74919 
z
" clip-path="url(#pb2bba1fd12)" style="fill: #7f7f7f"/>
   </g>
   <g id="patch_41">
    <path d="M 298.224773 281.761348 
L 357.74447 281.761348 
L 357.74447 280.840142 
L 298.224773 280.840142 
z
" clip-path="url(#pb2bba1fd12)" style="fill: #7f7f7f"/>
   </g>
   <g id="patch_42">
    <path d="M 372.624394 37.641652 
L 432.144091 37.641652 
L 432.144091 36.720445 
L 372.624394 36.720445 
z
" clip-path="url(#pb2bba1fd12)" style="fill: #7f7f7f"/>
   </g>
   <g id="patch_43">
    <path d="M 75.025909 297.421857 
L 134.545606 297.421857 
L 134.545606 297.421857 
L 75.025909 297.421857 
z
" clip-path="url(#pb2bba1fd12)" style="fill: #bcbd22"/>
   </g>
   <g id="patch_44">
    <path d="M 149.42553 303.64 
L 208.945227 303.64 
L 208.945227 303.64 
L 149.42553 303.64 
z
" clip-path="url(#pb2bba1fd12)" style="fill: #bcbd22"/>
   </g>
   <g id="patch_45">
    <path d="M 223.825152 287.74919 
L 283.344848 287.74919 
L 283.344848 287.74919 
L 223.825152 287.74919 
z
" clip-path="url(#pb2bba1fd12)" style="fill: #bcbd22"/>
   </g>
   <g id="patch_46">
    <path d="M 298.224773 280.840142 
L 357.74447 280.840142 
L 357.74447 280.60984 
L 298.224773 280.60984 
z
" clip-path="url(#pb2bba1fd12)" style="fill: #bcbd22"/>
   </g>
   <g id="patch_47">
    <path d="M 372.624394 36.720445 
L 432.144091 36.720445 
L 432.144091 36.720445 
L 372.624394 36.720445 
z
" clip-path="url(#pb2bba1fd12)" style="fill: #bcbd22"/>
   </g>
   <g id="patch_48">
    <path d="M 75.025909 297.421857 
L 134.545606 297.421857 
L 134.545606 297.421857 
L 75.025909 297.421857 
z
" clip-path="url(#pb2bba1fd12)" style="fill: #17becf"/>
   </g>
   <g id="patch_49">
    <path d="M 149.42553 303.64 
L 208.945227 303.64 
L 208.945227 303.64 
L 149.42553 303.64 
z
" clip-path="url(#pb2bba1fd12)" style="fill: #17becf"/>
   </g>
   <g id="patch_50">
    <path d="M 223.825152 287.74919 
L 283.344848 287.74919 
L 283.344848 287.74919 
L 223.825152 287.74919 
z
" clip-path="url(#pb2bba1fd12)" style="fill: #17becf"/>
   </g>
   <g id="patch_51">
    <path d="M 298.224773 280.60984 
L 357.74447 280.60984 
L 357.74447 280.60984 
L 298.224773 280.60984 
z
" clip-path="url(#pb2bba1fd12)" style="fill: #17becf"/>
   </g>
   <g id="patch_52">
    <path d="M 372.624394 36.720445 
L 432.144091 36.720445 
L 432.144091 24.975064 
L 372.624394 24.975064 
z
" clip-path="url(#pb2bba1fd12)" style="fill: #17becf"/>
   </g>
   <g id="patch_53">
    <path d="M 75.025909 297.421857 
L 134.545606 297.421857 
L 134.545606 297.421857 
L 75.025909 297.421857 
z
" clip-path="url(#pb2bba1fd12)" style="fill: #1f77b4"/>
   </g>
   <g id="patch_54">
    <path d="M 149.42553 303.64 
L 208.945227 303.64 
L 208.945227 303.64 
L 149.42553 303.64 
z
" clip-path="url(#pb2bba1fd12)" style="fill: #1f77b4"/>
   </g>
   <g id="patch_55">
    <path d="M 223.825152 287.74919 
L 283.344848 287.74919 
L 283.344848 287.74919 
L 223.825152 287.74919 
z
" clip-path="url(#pb2bba1fd12)" style="fill: #1f77b4"/>
   </g>
   <g id="patch_56">
    <path d="M 298.224773 280.60984 
L 357.74447 280.60984 
L 357.74447 280.60984 
L 298.224773 280.60984 
z
" clip-path="url(#pb2bba1fd12)" style="fill: #1f77b4"/>
   </g>
   <g id="patch_57">
    <path d="M 372.624394 24.975064 
L 432.144091 24.975064 
L 432.144091 24.744762 
L 372.624394 24.744762 
z
" clip-path="url(#pb2bba1fd12)" style="fill: #1f77b4"/>
   </g>
   <g id="matplotlib.axis_1">
    <g id="xtick_1">
     <g id="line2d_1">
      <defs>
       <path id="mf732e89fd8" d="M 0 0 
L 0 3.5 
" style="stroke: #000000; stroke-width: 0.8"/>
      </defs>
      <g>
       <use xlink:href="#mf732e89fd8" x="104.785758" y="303.64" style="stroke: #000000; stroke-width: 0.8"/>
      </g>
     </g>
     <g id="text_1">
      <!-- CRAN -->
      <g transform="translate(90.859195 318.238437) scale(0.1 -0.1)">
       <defs>
        <path id="DejaVuSans-43" d="M 4122 4306 
L 4122 3641 
Q 3803 3938 3442 4084 
Q 3081 4231 2675 4231 
Q 1875 4231 1450 3742 
Q 1025 3253 1025 2328 
Q 1025 1406 1450 917 
Q 1875 428 2675 428 
Q 3081 428 3442 575 
Q 3803 722 4122 1019 
L 4122 359 
Q 3791 134 3420 21 
Q 3050 -91 2638 -91 
Q 1578 -91 968 557 
Q 359 1206 359 2328 
Q 359 3453 968 4101 
Q 1578 4750 2638 4750 
Q 3056 4750 3426 4639 
Q 3797 4528 4122 4306 
z
" transform="scale(0.015625)"/>
        <path id="DejaVuSans-52" d="M 2841 2188 
Q 3044 2119 3236 1894 
Q 3428 1669 3622 1275 
L 4263 0 
L 3584 0 
L 2988 1197 
Q 2756 1666 2539 1819 
Q 2322 1972 1947 1972 
L 1259 1972 
L 1259 0 
L 628 0 
L 628 4666 
L 2053 4666 
Q 2853 4666 3247 4331 
Q 3641 3997 3641 3322 
Q 3641 2881 3436 2590 
Q 3231 2300 2841 2188 
z
M 1259 4147 
L 1259 2491 
L 2053 2491 
Q 2509 2491 2742 2702 
Q 2975 2913 2975 3322 
Q 2975 3731 2742 3939 
Q 2509 4147 2053 4147 
L 1259 4147 
z
" transform="scale(0.015625)"/>
        <path id="DejaVuSans-41" d="M 2188 4044 
L 1331 1722 
L 3047 1722 
L 2188 4044 
z
M 1831 4666 
L 2547 4666 
L 4325 0 
L 3669 0 
L 3244 1197 
L 1141 1197 
L 716 0 
L 50 0 
L 1831 4666 
z
" transform="scale(0.015625)"/>
        <path id="DejaVuSans-4e" d="M 628 4666 
L 1478 4666 
L 3547 763 
L 3547 4666 
L 4159 4666 
L 4159 0 
L 3309 0 
L 1241 3903 
L 1241 0 
L 628 0 
L 628 4666 
z
" transform="scale(0.015625)"/>
       </defs>
       <use xlink:href="#DejaVuSans-43"/>
       <use xlink:href="#DejaVuSans-52" x="69.824219"/>
       <use xlink:href="#DejaVuSans-41" x="135.306641"/>
       <use xlink:href="#DejaVuSans-4e" x="203.714844"/>
      </g>
     </g>
    </g>
    <g id="xtick_2">
     <g id="line2d_2">
      <g>
       <use xlink:href="#mf732e89fd8" x="179.185379" y="303.64" style="stroke: #000000; stroke-width: 0.8"/>
      </g>
     </g>
     <g id="text_2">
      <!-- PyPi -->
      <g transform="translate(168.919754 318.238437) scale(0.1 -0.1)">
       <defs>
        <path id="DejaVuSans-50" d="M 1259 4147 
L 1259 2394 
L 2053 2394 
Q 2494 2394 2734 2622 
Q 2975 2850 2975 3272 
Q 2975 3691 2734 3919 
Q 2494 4147 2053 4147 
L 1259 4147 
z
M 628 4666 
L 2053 4666 
Q 2838 4666 3239 4311 
Q 3641 3956 3641 3272 
Q 3641 2581 3239 2228 
Q 2838 1875 2053 1875 
L 1259 1875 
L 1259 0 
L 628 0 
L 628 4666 
z
" transform="scale(0.015625)"/>
        <path id="DejaVuSans-79" d="M 2059 -325 
Q 1816 -950 1584 -1140 
Q 1353 -1331 966 -1331 
L 506 -1331 
L 506 -850 
L 844 -850 
Q 1081 -850 1212 -737 
Q 1344 -625 1503 -206 
L 1606 56 
L 191 3500 
L 800 3500 
L 1894 763 
L 2988 3500 
L 3597 3500 
L 2059 -325 
z
" transform="scale(0.015625)"/>
        <path id="DejaVuSans-69" d="M 603 3500 
L 1178 3500 
L 1178 0 
L 603 0 
L 603 3500 
z
M 603 4863 
L 1178 4863 
L 1178 4134 
L 603 4134 
L 603 4863 
z
" transform="scale(0.015625)"/>
       </defs>
       <use xlink:href="#DejaVuSans-50"/>
       <use xlink:href="#DejaVuSans-79" x="60.302734"/>
       <use xlink:href="#DejaVuSans-50" x="119.482422"/>
       <use xlink:href="#DejaVuSans-69" x="177.535156"/>
      </g>
     </g>
    </g>
    <g id="xtick_3">
     <g id="line2d_3">
      <g>
       <use xlink:href="#mf732e89fd8" x="253.585" y="303.64" style="stroke: #000000; stroke-width: 0.8"/>
      </g>
     </g>
     <g id="text_3">
      <!-- CFF -->
      <g transform="translate(244.342031 318.238437) scale(0.1 -0.1)">
       <defs>
        <path id="DejaVuSans-46" d="M 628 4666 
L 3309 4666 
L 3309 4134 
L 1259 4134 
L 1259 2759 
L 3109 2759 
L 3109 2228 
L 1259 2228 
L 1259 0 
L 628 0 
L 628 4666 
z
" transform="scale(0.015625)"/>
       </defs>
       <use xlink:href="#DejaVuSans-43"/>
       <use xlink:href="#DejaVuSans-46" x="69.824219"/>
       <use xlink:href="#DejaVuSans-46" x="127.34375"/>
      </g>
     </g>
    </g>
    <g id="xtick_4">
     <g id="line2d_4">
      <g>
       <use xlink:href="#mf732e89fd8" x="327.984621" y="303.64" style="stroke: #000000; stroke-width: 0.8"/>
      </g>
     </g>
     <g id="text_4">
      <!-- PyPi CFF -->
      <g transform="translate(306.886965 318.238437) scale(0.1 -0.1)">
       <defs>
        <path id="DejaVuSans-20" transform="scale(0.015625)"/>
       </defs>
       <use xlink:href="#DejaVuSans-50"/>
       <use xlink:href="#DejaVuSans-79" x="60.302734"/>
       <use xlink:href="#DejaVuSans-50" x="119.482422"/>
       <use xlink:href="#DejaVuSans-69" x="177.535156"/>
       <use xlink:href="#DejaVuSans-20" x="205.318359"/>
       <use xlink:href="#DejaVuSans-43" x="237.105469"/>
       <use xlink:href="#DejaVuSans-46" x="306.929688"/>
       <use xlink:href="#DejaVuSans-46" x="364.449219"/>
      </g>
     </g>
    </g>
    <g id="xtick_5">
     <g id="line2d_5">
      <g>
       <use xlink:href="#mf732e89fd8" x="402.384242" y="303.64" style="stroke: #000000; stroke-width: 0.8"/>
      </g>
     </g>
     <g id="text_5">
      <!-- CRAN CFF -->
      <g transform="translate(377.625649 318.238437) scale(0.1 -0.1)">
       <use xlink:href="#DejaVuSans-43"/>
       <use xlink:href="#DejaVuSans-52" x="69.824219"/>
       <use xlink:href="#DejaVuSans-41" x="135.306641"/>
       <use xlink:href="#DejaVuSans-4e" x="203.714844"/>
       <use xlink:href="#DejaVuSans-20" x="278.519531"/>
       <use xlink:href="#DejaVuSans-43" x="310.306641"/>
       <use xlink:href="#DejaVuSans-46" x="380.130859"/>
       <use xlink:href="#DejaVuSans-46" x="437.650391"/>
      </g>
     </g>
    </g>
    <g id="text_6">
     <!-- Source -->
     <g transform="translate(236.413906 331.916562) scale(0.1 -0.1)">
      <defs>
       <path id="DejaVuSans-53" d="M 3425 4513 
L 3425 3897 
Q 3066 4069 2747 4153 
Q 2428 4238 2131 4238 
Q 1616 4238 1336 4038 
Q 1056 3838 1056 3469 
Q 1056 3159 1242 3001 
Q 1428 2844 1947 2747 
L 2328 2669 
Q 3034 2534 3370 2195 
Q 3706 1856 3706 1288 
Q 3706 609 3251 259 
Q 2797 -91 1919 -91 
Q 1588 -91 1214 -16 
Q 841 59 441 206 
L 441 856 
Q 825 641 1194 531 
Q 1563 422 1919 422 
Q 2459 422 2753 634 
Q 3047 847 3047 1241 
Q 3047 1584 2836 1778 
Q 2625 1972 2144 2069 
L 1759 2144 
Q 1053 2284 737 2584 
Q 422 2884 422 3419 
Q 422 4038 858 4394 
Q 1294 4750 2059 4750 
Q 2388 4750 2728 4690 
Q 3069 4631 3425 4513 
z
" transform="scale(0.015625)"/>
       <path id="DejaVuSans-6f" d="M 1959 3097 
Q 1497 3097 1228 2736 
Q 959 2375 959 1747 
Q 959 1119 1226 758 
Q 1494 397 1959 397 
Q 2419 397 2687 759 
Q 2956 1122 2956 1747 
Q 2956 2369 2687 2733 
Q 2419 3097 1959 3097 
z
M 1959 3584 
Q 2709 3584 3137 3096 
Q 3566 2609 3566 1747 
Q 3566 888 3137 398 
Q 2709 -91 1959 -91 
Q 1206 -91 779 398 
Q 353 888 353 1747 
Q 353 2609 779 3096 
Q 1206 3584 1959 3584 
z
" transform="scale(0.015625)"/>
       <path id="DejaVuSans-75" d="M 544 1381 
L 544 3500 
L 1119 3500 
L 1119 1403 
Q 1119 906 1312 657 
Q 1506 409 1894 409 
Q 2359 409 2629 706 
Q 2900 1003 2900 1516 
L 2900 3500 
L 3475 3500 
L 3475 0 
L 2900 0 
L 2900 538 
Q 2691 219 2414 64 
Q 2138 -91 1772 -91 
Q 1169 -91 856 284 
Q 544 659 544 1381 
z
M 1991 3584 
L 1991 3584 
z
" transform="scale(0.015625)"/>
       <path id="DejaVuSans-72" d="M 2631 2963 
Q 2534 3019 2420 3045 
Q 2306 3072 2169 3072 
Q 1681 3072 1420 2755 
Q 1159 2438 1159 1844 
L 1159 0 
L 581 0 
L 581 3500 
L 1159 3500 
L 1159 2956 
Q 1341 3275 1631 3429 
Q 1922 3584 2338 3584 
Q 2397 3584 2469 3576 
Q 2541 3569 2628 3553 
L 2631 2963 
z
" transform="scale(0.015625)"/>
       <path id="DejaVuSans-63" d="M 3122 3366 
L 3122 2828 
Q 2878 2963 2633 3030 
Q 2388 3097 2138 3097 
Q 1578 3097 1268 2742 
Q 959 2388 959 1747 
Q 959 1106 1268 751 
Q 1578 397 2138 397 
Q 2388 397 2633 464 
Q 2878 531 3122 666 
L 3122 134 
Q 2881 22 2623 -34 
Q 2366 -91 2075 -91 
Q 1284 -91 818 406 
Q 353 903 353 1747 
Q 353 2603 823 3093 
Q 1294 3584 2113 3584 
Q 2378 3584 2631 3529 
Q 2884 3475 3122 3366 
z
" transform="scale(0.015625)"/>
       <path id="DejaVuSans-65" d="M 3597 1894 
L 3597 1613 
L 953 1613 
Q 991 1019 1311 708 
Q 1631 397 2203 397 
Q 2534 397 2845 478 
Q 3156 559 3463 722 
L 3463 178 
Q 3153 47 2828 -22 
Q 2503 -91 2169 -91 
Q 1331 -91 842 396 
Q 353 884 353 1716 
Q 353 2575 817 3079 
Q 1281 3584 2069 3584 
Q 2775 3584 3186 3129 
Q 3597 2675 3597 1894 
z
M 3022 2063 
Q 3016 2534 2758 2815 
Q 2500 3097 2075 3097 
Q 1594 3097 1305 2825 
Q 1016 2553 972 2059 
L 3022 2063 
z
" transform="scale(0.015625)"/>
      </defs>
      <use xlink:href="#DejaVuSans-53"/>
      <use xlink:href="#DejaVuSans-6f" x="63.476562"/>
      <use xlink:href="#DejaVuSans-75" x="124.658203"/>
      <use xlink:href="#DejaVuSans-72" x="188.037109"/>
      <use xlink:href="#DejaVuSans-63" x="226.900391"/>
      <use xlink:href="#DejaVuSans-65" x="281.880859"/>
     </g>
    </g>
   </g>
   <g id="matplotlib.axis_2">
    <g id="ytick_1">
     <g id="line2d_6">
      <defs>
       <path id="m8967e93741" d="M 0 0 
L -3.5 0 
" style="stroke: #000000; stroke-width: 0.8"/>
      </defs>
      <g>
       <use xlink:href="#m8967e93741" x="57.17" y="303.64" style="stroke: #000000; stroke-width: 0.8"/>
      </g>
     </g>
     <g id="text_7">
      <!-- 0 -->
      <g transform="translate(43.8075 307.439219) scale(0.1 -0.1)">
       <defs>
        <path id="DejaVuSans-30" d="M 2034 4250 
Q 1547 4250 1301 3770 
Q 1056 3291 1056 2328 
Q 1056 1369 1301 889 
Q 1547 409 2034 409 
Q 2525 409 2770 889 
Q 3016 1369 3016 2328 
Q 3016 3291 2770 3770 
Q 2525 4250 2034 4250 
z
M 2034 4750 
Q 2819 4750 3233 4129 
Q 3647 3509 3647 2328 
Q 3647 1150 3233 529 
Q 2819 -91 2034 -91 
Q 1250 -91 836 529 
Q 422 1150 422 2328 
Q 422 3509 836 4129 
Q 1250 4750 2034 4750 
z
" transform="scale(0.015625)"/>
       </defs>
       <use xlink:href="#DejaVuSans-30"/>
      </g>
     </g>
    </g>
    <g id="ytick_2">
     <g id="line2d_7">
      <g>
       <use xlink:href="#m8967e93741" x="57.17" y="257.57968" style="stroke: #000000; stroke-width: 0.8"/>
      </g>
     </g>
     <g id="text_8">
      <!-- 200 -->
      <g transform="translate(31.0825 261.378899) scale(0.1 -0.1)">
       <defs>
        <path id="DejaVuSans-32" d="M 1228 531 
L 3431 531 
L 3431 0 
L 469 0 
L 469 531 
Q 828 903 1448 1529 
Q 2069 2156 2228 2338 
Q 2531 2678 2651 2914 
Q 2772 3150 2772 3378 
Q 2772 3750 2511 3984 
Q 2250 4219 1831 4219 
Q 1534 4219 1204 4116 
Q 875 4013 500 3803 
L 500 4441 
Q 881 4594 1212 4672 
Q 1544 4750 1819 4750 
Q 2544 4750 2975 4387 
Q 3406 4025 3406 3419 
Q 3406 3131 3298 2873 
Q 3191 2616 2906 2266 
Q 2828 2175 2409 1742 
Q 1991 1309 1228 531 
z
" transform="scale(0.015625)"/>
       </defs>
       <use xlink:href="#DejaVuSans-32"/>
       <use xlink:href="#DejaVuSans-30" x="63.623047"/>
       <use xlink:href="#DejaVuSans-30" x="127.246094"/>
      </g>
     </g>
    </g>
    <g id="ytick_3">
     <g id="line2d_8">
      <g>
       <use xlink:href="#m8967e93741" x="57.17" y="211.51936" style="stroke: #000000; stroke-width: 0.8"/>
      </g>
     </g>
     <g id="text_9">
      <!-- 400 -->
      <g transform="translate(31.0825 215.318579) scale(0.1 -0.1)">
       <defs>
        <path id="DejaVuSans-34" d="M 2419 4116 
L 825 1625 
L 2419 1625 
L 2419 4116 
z
M 2253 4666 
L 3047 4666 
L 3047 1625 
L 3713 1625 
L 3713 1100 
L 3047 1100 
L 3047 0 
L 2419 0 
L 2419 1100 
L 313 1100 
L 313 1709 
L 2253 4666 
z
" transform="scale(0.015625)"/>
       </defs>
       <use xlink:href="#DejaVuSans-34"/>
       <use xlink:href="#DejaVuSans-30" x="63.623047"/>
       <use xlink:href="#DejaVuSans-30" x="127.246094"/>
      </g>
     </g>
    </g>
    <g id="ytick_4">
     <g id="line2d_9">
      <g>
       <use xlink:href="#m8967e93741" x="57.17" y="165.45904" style="stroke: #000000; stroke-width: 0.8"/>
      </g>
     </g>
     <g id="text_10">
      <!-- 600 -->
      <g transform="translate(31.0825 169.258259) scale(0.1 -0.1)">
       <defs>
        <path id="DejaVuSans-36" d="M 2113 2584 
Q 1688 2584 1439 2293 
Q 1191 2003 1191 1497 
Q 1191 994 1439 701 
Q 1688 409 2113 409 
Q 2538 409 2786 701 
Q 3034 994 3034 1497 
Q 3034 2003 2786 2293 
Q 2538 2584 2113 2584 
z
M 3366 4563 
L 3366 3988 
Q 3128 4100 2886 4159 
Q 2644 4219 2406 4219 
Q 1781 4219 1451 3797 
Q 1122 3375 1075 2522 
Q 1259 2794 1537 2939 
Q 1816 3084 2150 3084 
Q 2853 3084 3261 2657 
Q 3669 2231 3669 1497 
Q 3669 778 3244 343 
Q 2819 -91 2113 -91 
Q 1303 -91 875 529 
Q 447 1150 447 2328 
Q 447 3434 972 4092 
Q 1497 4750 2381 4750 
Q 2619 4750 2861 4703 
Q 3103 4656 3366 4563 
z
" transform="scale(0.015625)"/>
       </defs>
       <use xlink:href="#DejaVuSans-36"/>
       <use xlink:href="#DejaVuSans-30" x="63.623047"/>
       <use xlink:href="#DejaVuSans-30" x="127.246094"/>
      </g>
     </g>
    </g>
    <g id="ytick_5">
     <g id="line2d_10">
      <g>
       <use xlink:href="#m8967e93741" x="57.17" y="119.39872" style="stroke: #000000; stroke-width: 0.8"/>
      </g>
     </g>
     <g id="text_11">
      <!-- 800 -->
      <g transform="translate(31.0825 123.197938) scale(0.1 -0.1)">
       <defs>
        <path id="DejaVuSans-38" d="M 2034 2216 
Q 1584 2216 1326 1975 
Q 1069 1734 1069 1313 
Q 1069 891 1326 650 
Q 1584 409 2034 409 
Q 2484 409 2743 651 
Q 3003 894 3003 1313 
Q 3003 1734 2745 1975 
Q 2488 2216 2034 2216 
z
M 1403 2484 
Q 997 2584 770 2862 
Q 544 3141 544 3541 
Q 544 4100 942 4425 
Q 1341 4750 2034 4750 
Q 2731 4750 3128 4425 
Q 3525 4100 3525 3541 
Q 3525 3141 3298 2862 
Q 3072 2584 2669 2484 
Q 3125 2378 3379 2068 
Q 3634 1759 3634 1313 
Q 3634 634 3220 271 
Q 2806 -91 2034 -91 
Q 1263 -91 848 271 
Q 434 634 434 1313 
Q 434 1759 690 2068 
Q 947 2378 1403 2484 
z
M 1172 3481 
Q 1172 3119 1398 2916 
Q 1625 2713 2034 2713 
Q 2441 2713 2670 2916 
Q 2900 3119 2900 3481 
Q 2900 3844 2670 4047 
Q 2441 4250 2034 4250 
Q 1625 4250 1398 4047 
Q 1172 3844 1172 3481 
z
" transform="scale(0.015625)"/>
       </defs>
       <use xlink:href="#DejaVuSans-38"/>
       <use xlink:href="#DejaVuSans-30" x="63.623047"/>
       <use xlink:href="#DejaVuSans-30" x="127.246094"/>
      </g>
     </g>
    </g>
    <g id="ytick_6">
     <g id="line2d_11">
      <g>
       <use xlink:href="#m8967e93741" x="57.17" y="73.3384" style="stroke: #000000; stroke-width: 0.8"/>
      </g>
     </g>
     <g id="text_12">
      <!-- 1000 -->
      <g transform="translate(24.72 77.137618) scale(0.1 -0.1)">
       <defs>
        <path id="DejaVuSans-31" d="M 794 531 
L 1825 531 
L 1825 4091 
L 703 3866 
L 703 4441 
L 1819 4666 
L 2450 4666 
L 2450 531 
L 3481 531 
L 3481 0 
L 794 0 
L 794 531 
z
" transform="scale(0.015625)"/>
       </defs>
       <use xlink:href="#DejaVuSans-31"/>
       <use xlink:href="#DejaVuSans-30" x="63.623047"/>
       <use xlink:href="#DejaVuSans-30" x="127.246094"/>
       <use xlink:href="#DejaVuSans-30" x="190.869141"/>
      </g>
     </g>
    </g>
    <g id="ytick_7">
     <g id="line2d_12">
      <g>
       <use xlink:href="#m8967e93741" x="57.17" y="27.27808" style="stroke: #000000; stroke-width: 0.8"/>
      </g>
     </g>
     <g id="text_13">
      <!-- 1200 -->
      <g transform="translate(24.72 31.077298) scale(0.1 -0.1)">
       <use xlink:href="#DejaVuSans-31"/>
       <use xlink:href="#DejaVuSans-32" x="63.623047"/>
       <use xlink:href="#DejaVuSans-30" x="127.246094"/>
       <use xlink:href="#DejaVuSans-30" x="190.869141"/>
      </g>
     </g>
    </g>
    <g id="text_14">
     <!-- Number of Citations -->
     <g transform="translate(18.640313 207.390312) rotate(-90) scale(0.1 -0.1)">
      <defs>
       <path id="DejaVuSans-6d" d="M 3328 2828 
Q 3544 3216 3844 3400 
Q 4144 3584 4550 3584 
Q 5097 3584 5394 3201 
Q 5691 2819 5691 2113 
L 5691 0 
L 5113 0 
L 5113 2094 
Q 5113 2597 4934 2840 
Q 4756 3084 4391 3084 
Q 3944 3084 3684 2787 
Q 3425 2491 3425 1978 
L 3425 0 
L 2847 0 
L 2847 2094 
Q 2847 2600 2669 2842 
Q 2491 3084 2119 3084 
Q 1678 3084 1418 2786 
Q 1159 2488 1159 1978 
L 1159 0 
L 581 0 
L 581 3500 
L 1159 3500 
L 1159 2956 
Q 1356 3278 1631 3431 
Q 1906 3584 2284 3584 
Q 2666 3584 2933 3390 
Q 3200 3197 3328 2828 
z
" transform="scale(0.015625)"/>
       <path id="DejaVuSans-62" d="M 3116 1747 
Q 3116 2381 2855 2742 
Q 2594 3103 2138 3103 
Q 1681 3103 1420 2742 
Q 1159 2381 1159 1747 
Q 1159 1113 1420 752 
Q 1681 391 2138 391 
Q 2594 391 2855 752 
Q 3116 1113 3116 1747 
z
M 1159 2969 
Q 1341 3281 1617 3432 
Q 1894 3584 2278 3584 
Q 2916 3584 3314 3078 
Q 3713 2572 3713 1747 
Q 3713 922 3314 415 
Q 2916 -91 2278 -91 
Q 1894 -91 1617 61 
Q 1341 213 1159 525 
L 1159 0 
L 581 0 
L 581 4863 
L 1159 4863 
L 1159 2969 
z
" transform="scale(0.015625)"/>
       <path id="DejaVuSans-66" d="M 2375 4863 
L 2375 4384 
L 1825 4384 
Q 1516 4384 1395 4259 
Q 1275 4134 1275 3809 
L 1275 3500 
L 2222 3500 
L 2222 3053 
L 1275 3053 
L 1275 0 
L 697 0 
L 697 3053 
L 147 3053 
L 147 3500 
L 697 3500 
L 697 3744 
Q 697 4328 969 4595 
Q 1241 4863 1831 4863 
L 2375 4863 
z
" transform="scale(0.015625)"/>
       <path id="DejaVuSans-74" d="M 1172 4494 
L 1172 3500 
L 2356 3500 
L 2356 3053 
L 1172 3053 
L 1172 1153 
Q 1172 725 1289 603 
Q 1406 481 1766 481 
L 2356 481 
L 2356 0 
L 1766 0 
Q 1100 0 847 248 
Q 594 497 594 1153 
L 594 3053 
L 172 3053 
L 172 3500 
L 594 3500 
L 594 4494 
L 1172 4494 
z
" transform="scale(0.015625)"/>
       <path id="DejaVuSans-61" d="M 2194 1759 
Q 1497 1759 1228 1600 
Q 959 1441 959 1056 
Q 959 750 1161 570 
Q 1363 391 1709 391 
Q 2188 391 2477 730 
Q 2766 1069 2766 1631 
L 2766 1759 
L 2194 1759 
z
M 3341 1997 
L 3341 0 
L 2766 0 
L 2766 531 
Q 2569 213 2275 61 
Q 1981 -91 1556 -91 
Q 1019 -91 701 211 
Q 384 513 384 1019 
Q 384 1609 779 1909 
Q 1175 2209 1959 2209 
L 2766 2209 
L 2766 2266 
Q 2766 2663 2505 2880 
Q 2244 3097 1772 3097 
Q 1472 3097 1187 3025 
Q 903 2953 641 2809 
L 641 3341 
Q 956 3463 1253 3523 
Q 1550 3584 1831 3584 
Q 2591 3584 2966 3190 
Q 3341 2797 3341 1997 
z
" transform="scale(0.015625)"/>
       <path id="DejaVuSans-6e" d="M 3513 2113 
L 3513 0 
L 2938 0 
L 2938 2094 
Q 2938 2591 2744 2837 
Q 2550 3084 2163 3084 
Q 1697 3084 1428 2787 
Q 1159 2491 1159 1978 
L 1159 0 
L 581 0 
L 581 3500 
L 1159 3500 
L 1159 2956 
Q 1366 3272 1645 3428 
Q 1925 3584 2291 3584 
Q 2894 3584 3203 3211 
Q 3513 2838 3513 2113 
z
" transform="scale(0.015625)"/>
       <path id="DejaVuSans-73" d="M 2834 3397 
L 2834 2853 
Q 2591 2978 2328 3040 
Q 2066 3103 1784 3103 
Q 1356 3103 1142 2972 
Q 928 2841 928 2578 
Q 928 2378 1081 2264 
Q 1234 2150 1697 2047 
L 1894 2003 
Q 2506 1872 2764 1633 
Q 3022 1394 3022 966 
Q 3022 478 2636 193 
Q 2250 -91 1575 -91 
Q 1294 -91 989 -36 
Q 684 19 347 128 
L 347 722 
Q 666 556 975 473 
Q 1284 391 1588 391 
Q 1994 391 2212 530 
Q 2431 669 2431 922 
Q 2431 1156 2273 1281 
Q 2116 1406 1581 1522 
L 1381 1569 
Q 847 1681 609 1914 
Q 372 2147 372 2553 
Q 372 3047 722 3315 
Q 1072 3584 1716 3584 
Q 2034 3584 2315 3537 
Q 2597 3491 2834 3397 
z
" transform="scale(0.015625)"/>
      </defs>
      <use xlink:href="#DejaVuSans-4e"/>
      <use xlink:href="#DejaVuSans-75" x="74.804688"/>
      <use xlink:href="#DejaVuSans-6d" x="138.183594"/>
      <use xlink:href="#DejaVuSans-62" x="235.595703"/>
      <use xlink:href="#DejaVuSans-65" x="299.072266"/>
      <use xlink:href="#DejaVuSans-72" x="360.595703"/>
      <use xlink:href="#DejaVuSans-20" x="401.708984"/>
      <use xlink:href="#DejaVuSans-6f" x="433.496094"/>
      <use xlink:href="#DejaVuSans-66" x="494.677734"/>
      <use xlink:href="#DejaVuSans-20" x="529.882812"/>
      <use xlink:href="#DejaVuSans-43" x="561.669922"/>
      <use xlink:href="#DejaVuSans-69" x="631.494141"/>
      <use xlink:href="#DejaVuSans-74" x="659.277344"/>
      <use xlink:href="#DejaVuSans-61" x="698.486328"/>
      <use xlink:href="#DejaVuSans-74" x="759.765625"/>
      <use xlink:href="#DejaVuSans-69" x="798.974609"/>
      <use xlink:href="#DejaVuSans-6f" x="826.757812"/>
      <use xlink:href="#DejaVuSans-6e" x="887.939453"/>
      <use xlink:href="#DejaVuSans-73" x="951.318359"/>
     </g>
    </g>
   </g>
   <g id="patch_58">
    <path d="M 57.17 303.64 
L 57.17 10.8 
" style="fill: none; stroke: #000000; stroke-width: 0.8; stroke-linejoin: miter; stroke-linecap: square"/>
   </g>
   <g id="patch_59">
    <path d="M 450 303.64 
L 450 10.8 
" style="fill: none; stroke: #000000; stroke-width: 0.8; stroke-linejoin: miter; stroke-linecap: square"/>
   </g>
   <g id="patch_60">
    <path d="M 57.17 303.64 
L 450 303.64 
" style="fill: none; stroke: #000000; stroke-width: 0.8; stroke-linejoin: miter; stroke-linecap: square"/>
   </g>
   <g id="patch_61">
    <path d="M 57.17 10.8 
L 450 10.8 
" style="fill: none; stroke: #000000; stroke-width: 0.8; stroke-linejoin: miter; stroke-linecap: square"/>
   </g>
   <g id="legend_1">
    <g id="patch_62">
     <path d="M 64.17 180.259375 
L 184.523125 180.259375 
Q 186.523125 180.259375 186.523125 178.259375 
L 186.523125 17.8 
Q 186.523125 15.8 184.523125 15.8 
L 64.17 15.8 
Q 62.17 15.8 62.17 17.8 
L 62.17 178.259375 
Q 62.17 180.259375 64.17 180.259375 
z
" style="fill: #ffffff; opacity: 0.8; stroke: #cccccc; stroke-linejoin: miter"/>
    </g>
    <g id="patch_63">
     <path d="M 66.17 27.398438 
L 86.17 27.398438 
L 86.17 20.398438 
L 66.17 20.398438 
z
" style="fill: #1f77b4"/>
    </g>
    <g id="text_15">
     <!-- manual -->
     <g transform="translate(94.17 27.398438) scale(0.1 -0.1)">
      <defs>
       <path id="DejaVuSans-6c" d="M 603 4863 
L 1178 4863 
L 1178 0 
L 603 0 
L 603 4863 
z
" transform="scale(0.015625)"/>
      </defs>
      <use xlink:href="#DejaVuSans-6d"/>
      <use xlink:href="#DejaVuSans-61" x="97.412109"/>
      <use xlink:href="#DejaVuSans-6e" x="158.691406"/>
      <use xlink:href="#DejaVuSans-75" x="222.070312"/>
      <use xlink:href="#DejaVuSans-61" x="285.449219"/>
      <use xlink:href="#DejaVuSans-6c" x="346.728516"/>
     </g>
    </g>
    <g id="patch_64">
     <path d="M 66.17 42.076563 
L 86.17 42.076563 
L 86.17 35.076563 
L 66.17 35.076563 
z
" style="fill: #ff7f0e"/>
    </g>
    <g id="text_16">
     <!-- article -->
     <g transform="translate(94.17 42.076563) scale(0.1 -0.1)">
      <use xlink:href="#DejaVuSans-61"/>
      <use xlink:href="#DejaVuSans-72" x="61.279297"/>
      <use xlink:href="#DejaVuSans-74" x="102.392578"/>
      <use xlink:href="#DejaVuSans-69" x="141.601562"/>
      <use xlink:href="#DejaVuSans-63" x="169.384766"/>
      <use xlink:href="#DejaVuSans-6c" x="224.365234"/>
      <use xlink:href="#DejaVuSans-65" x="252.148438"/>
     </g>
    </g>
    <g id="patch_65">
     <path d="M 66.17 56.754688 
L 86.17 56.754688 
L 86.17 49.754688 
L 66.17 49.754688 
z
" style="fill: #2ca02c"/>
    </g>
    <g id="text_17">
     <!-- conference-paper -->
     <g transform="translate(94.17 56.754688) scale(0.1 -0.1)">
      <defs>
       <path id="DejaVuSans-2d" d="M 313 2009 
L 1997 2009 
L 1997 1497 
L 313 1497 
L 313 2009 
z
" transform="scale(0.015625)"/>
       <path id="DejaVuSans-70" d="M 1159 525 
L 1159 -1331 
L 581 -1331 
L 581 3500 
L 1159 3500 
L 1159 2969 
Q 1341 3281 1617 3432 
Q 1894 3584 2278 3584 
Q 2916 3584 3314 3078 
Q 3713 2572 3713 1747 
Q 3713 922 3314 415 
Q 2916 -91 2278 -91 
Q 1894 -91 1617 61 
Q 1341 213 1159 525 
z
M 3116 1747 
Q 3116 2381 2855 2742 
Q 2594 3103 2138 3103 
Q 1681 3103 1420 2742 
Q 1159 2381 1159 1747 
Q 1159 1113 1420 752 
Q 1681 391 2138 391 
Q 2594 391 2855 752 
Q 3116 1113 3116 1747 
z
" transform="scale(0.015625)"/>
      </defs>
      <use xlink:href="#DejaVuSans-63"/>
      <use xlink:href="#DejaVuSans-6f" x="54.980469"/>
      <use xlink:href="#DejaVuSans-6e" x="116.162109"/>
      <use xlink:href="#DejaVuSans-66" x="179.541016"/>
      <use xlink:href="#DejaVuSans-65" x="214.746094"/>
      <use xlink:href="#DejaVuSans-72" x="276.269531"/>
      <use xlink:href="#DejaVuSans-65" x="315.132812"/>
      <use xlink:href="#DejaVuSans-6e" x="376.65625"/>
      <use xlink:href="#DejaVuSans-63" x="440.035156"/>
      <use xlink:href="#DejaVuSans-65" x="495.015625"/>
      <use xlink:href="#DejaVuSans-2d" x="556.539062"/>
      <use xlink:href="#DejaVuSans-70" x="592.623047"/>
      <use xlink:href="#DejaVuSans-61" x="656.099609"/>
      <use xlink:href="#DejaVuSans-70" x="717.378906"/>
      <use xlink:href="#DejaVuSans-65" x="780.855469"/>
      <use xlink:href="#DejaVuSans-72" x="842.378906"/>
     </g>
    </g>
    <g id="patch_66">
     <path d="M 66.17 71.432813 
L 86.17 71.432813 
L 86.17 64.432813 
L 66.17 64.432813 
z
" style="fill: #d62728"/>
    </g>
    <g id="text_18">
     <!-- book -->
     <g transform="translate(94.17 71.432813) scale(0.1 -0.1)">
      <defs>
       <path id="DejaVuSans-6b" d="M 581 4863 
L 1159 4863 
L 1159 1991 
L 2875 3500 
L 3609 3500 
L 1753 1863 
L 3688 0 
L 2938 0 
L 1159 1709 
L 1159 0 
L 581 0 
L 581 4863 
z
" transform="scale(0.015625)"/>
      </defs>
      <use xlink:href="#DejaVuSans-62"/>
      <use xlink:href="#DejaVuSans-6f" x="63.476562"/>
      <use xlink:href="#DejaVuSans-6f" x="124.658203"/>
      <use xlink:href="#DejaVuSans-6b" x="185.839844"/>
     </g>
    </g>
    <g id="patch_67">
     <path d="M 66.17 86.110938 
L 86.17 86.110938 
L 86.17 79.110938 
L 66.17 79.110938 
z
" style="fill: #9467bd"/>
    </g>
    <g id="text_19">
     <!-- unpublished -->
     <g transform="translate(94.17 86.110938) scale(0.1 -0.1)">
      <defs>
       <path id="DejaVuSans-68" d="M 3513 2113 
L 3513 0 
L 2938 0 
L 2938 2094 
Q 2938 2591 2744 2837 
Q 2550 3084 2163 3084 
Q 1697 3084 1428 2787 
Q 1159 2491 1159 1978 
L 1159 0 
L 581 0 
L 581 4863 
L 1159 4863 
L 1159 2956 
Q 1366 3272 1645 3428 
Q 1925 3584 2291 3584 
Q 2894 3584 3203 3211 
Q 3513 2838 3513 2113 
z
" transform="scale(0.015625)"/>
       <path id="DejaVuSans-64" d="M 2906 2969 
L 2906 4863 
L 3481 4863 
L 3481 0 
L 2906 0 
L 2906 525 
Q 2725 213 2448 61 
Q 2172 -91 1784 -91 
Q 1150 -91 751 415 
Q 353 922 353 1747 
Q 353 2572 751 3078 
Q 1150 3584 1784 3584 
Q 2172 3584 2448 3432 
Q 2725 3281 2906 2969 
z
M 947 1747 
Q 947 1113 1208 752 
Q 1469 391 1925 391 
Q 2381 391 2643 752 
Q 2906 1113 2906 1747 
Q 2906 2381 2643 2742 
Q 2381 3103 1925 3103 
Q 1469 3103 1208 2742 
Q 947 2381 947 1747 
z
" transform="scale(0.015625)"/>
      </defs>
      <use xlink:href="#DejaVuSans-75"/>
      <use xlink:href="#DejaVuSans-6e" x="63.378906"/>
      <use xlink:href="#DejaVuSans-70" x="126.757812"/>
      <use xlink:href="#DejaVuSans-75" x="190.234375"/>
      <use xlink:href="#DejaVuSans-62" x="253.613281"/>
      <use xlink:href="#DejaVuSans-6c" x="317.089844"/>
      <use xlink:href="#DejaVuSans-69" x="344.873047"/>
      <use xlink:href="#DejaVuSans-73" x="372.65625"/>
      <use xlink:href="#DejaVuSans-68" x="424.755859"/>
      <use xlink:href="#DejaVuSans-65" x="488.134766"/>
      <use xlink:href="#DejaVuSans-64" x="549.658203"/>
     </g>
    </g>
    <g id="patch_68">
     <path d="M 66.17 100.789063 
L 86.17 100.789063 
L 86.17 93.789063 
L 66.17 93.789063 
z
" style="fill: #8c564b"/>
    </g>
    <g id="text_20">
     <!-- published -->
     <g transform="translate(94.17 100.789063) scale(0.1 -0.1)">
      <use xlink:href="#DejaVuSans-70"/>
      <use xlink:href="#DejaVuSans-75" x="63.476562"/>
      <use xlink:href="#DejaVuSans-62" x="126.855469"/>
      <use xlink:href="#DejaVuSans-6c" x="190.332031"/>
      <use xlink:href="#DejaVuSans-69" x="218.115234"/>
      <use xlink:href="#DejaVuSans-73" x="245.898438"/>
      <use xlink:href="#DejaVuSans-68" x="297.998047"/>
      <use xlink:href="#DejaVuSans-65" x="361.376953"/>
      <use xlink:href="#DejaVuSans-64" x="422.900391"/>
     </g>
    </g>
    <g id="patch_69">
     <path d="M 66.17 115.467188 
L 86.17 115.467188 
L 86.17 108.467188 
L 66.17 108.467188 
z
" style="fill: #e377c2"/>
    </g>
    <g id="text_21">
     <!-- inproceedings -->
     <g transform="translate(94.17 115.467188) scale(0.1 -0.1)">
      <defs>
       <path id="DejaVuSans-67" d="M 2906 1791 
Q 2906 2416 2648 2759 
Q 2391 3103 1925 3103 
Q 1463 3103 1205 2759 
Q 947 2416 947 1791 
Q 947 1169 1205 825 
Q 1463 481 1925 481 
Q 2391 481 2648 825 
Q 2906 1169 2906 1791 
z
M 3481 434 
Q 3481 -459 3084 -895 
Q 2688 -1331 1869 -1331 
Q 1566 -1331 1297 -1286 
Q 1028 -1241 775 -1147 
L 775 -588 
Q 1028 -725 1275 -790 
Q 1522 -856 1778 -856 
Q 2344 -856 2625 -561 
Q 2906 -266 2906 331 
L 2906 616 
Q 2728 306 2450 153 
Q 2172 0 1784 0 
Q 1141 0 747 490 
Q 353 981 353 1791 
Q 353 2603 747 3093 
Q 1141 3584 1784 3584 
Q 2172 3584 2450 3431 
Q 2728 3278 2906 2969 
L 2906 3500 
L 3481 3500 
L 3481 434 
z
" transform="scale(0.015625)"/>
      </defs>
      <use xlink:href="#DejaVuSans-69"/>
      <use xlink:href="#DejaVuSans-6e" x="27.783203"/>
      <use xlink:href="#DejaVuSans-70" x="91.162109"/>
      <use xlink:href="#DejaVuSans-72" x="154.638672"/>
      <use xlink:href="#DejaVuSans-6f" x="193.501953"/>
      <use xlink:href="#DejaVuSans-63" x="254.683594"/>
      <use xlink:href="#DejaVuSans-65" x="309.664062"/>
      <use xlink:href="#DejaVuSans-65" x="371.1875"/>
      <use xlink:href="#DejaVuSans-64" x="432.710938"/>
      <use xlink:href="#DejaVuSans-69" x="496.1875"/>
      <use xlink:href="#DejaVuSans-6e" x="523.970703"/>
      <use xlink:href="#DejaVuSans-67" x="587.349609"/>
      <use xlink:href="#DejaVuSans-73" x="650.826172"/>
     </g>
    </g>
    <g id="patch_70">
     <path d="M 66.17 130.145313 
L 86.17 130.145313 
L 86.17 123.145313 
L 66.17 123.145313 
z
" style="fill: #7f7f7f"/>
    </g>
    <g id="text_22">
     <!-- software -->
     <g transform="translate(94.17 130.145313) scale(0.1 -0.1)">
      <defs>
       <path id="DejaVuSans-77" d="M 269 3500 
L 844 3500 
L 1563 769 
L 2278 3500 
L 2956 3500 
L 3675 769 
L 4391 3500 
L 4966 3500 
L 4050 0 
L 3372 0 
L 2619 2869 
L 1863 0 
L 1184 0 
L 269 3500 
z
" transform="scale(0.015625)"/>
      </defs>
      <use xlink:href="#DejaVuSans-73"/>
      <use xlink:href="#DejaVuSans-6f" x="52.099609"/>
      <use xlink:href="#DejaVuSans-66" x="113.28125"/>
      <use xlink:href="#DejaVuSans-74" x="146.736328"/>
      <use xlink:href="#DejaVuSans-77" x="185.945312"/>
      <use xlink:href="#DejaVuSans-61" x="267.732422"/>
      <use xlink:href="#DejaVuSans-72" x="329.011719"/>
      <use xlink:href="#DejaVuSans-65" x="367.875"/>
     </g>
    </g>
    <g id="patch_71">
     <path d="M 66.17 144.823438 
L 86.17 144.823438 
L 86.17 137.823438 
L 66.17 137.823438 
z
" style="fill: #bcbd22"/>
    </g>
    <g id="text_23">
     <!-- report -->
     <g transform="translate(94.17 144.823438) scale(0.1 -0.1)">
      <use xlink:href="#DejaVuSans-72"/>
      <use xlink:href="#DejaVuSans-65" x="38.863281"/>
      <use xlink:href="#DejaVuSans-70" x="100.386719"/>
      <use xlink:href="#DejaVuSans-6f" x="163.863281"/>
      <use xlink:href="#DejaVuSans-72" x="225.044922"/>
      <use xlink:href="#DejaVuSans-74" x="266.158203"/>
     </g>
    </g>
    <g id="patch_72">
     <path d="M 66.17 159.501563 
L 86.17 159.501563 
L 86.17 152.501563 
L 66.17 152.501563 
z
" style="fill: #17becf"/>
    </g>
    <g id="text_24">
     <!-- generic -->
     <g transform="translate(94.17 159.501563) scale(0.1 -0.1)">
      <use xlink:href="#DejaVuSans-67"/>
      <use xlink:href="#DejaVuSans-65" x="63.476562"/>
      <use xlink:href="#DejaVuSans-6e" x="125"/>
      <use xlink:href="#DejaVuSans-65" x="188.378906"/>
      <use xlink:href="#DejaVuSans-72" x="249.902344"/>
      <use xlink:href="#DejaVuSans-69" x="291.015625"/>
      <use xlink:href="#DejaVuSans-63" x="318.798828"/>
     </g>
    </g>
    <g id="patch_73">
     <path d="M 66.17 174.179688 
L 86.17 174.179688 
L 86.17 167.179688 
L 66.17 167.179688 
z
" style="fill: #1f77b4"/>
    </g>
    <g id="text_25">
     <!-- data -->
     <g transform="translate(94.17 174.179688) scale(0.1 -0.1)">
      <use xlink:href="#DejaVuSans-64"/>
      <use xlink:href="#DejaVuSans-61" x="63.476562"/>
      <use xlink:href="#DejaVuSans-74" x="124.755859"/>
      <use xlink:href="#DejaVuSans-61" x="163.964844"/>
     </g>
    </g>
   </g>
  </g>
 </g>
 <defs>
  <clipPath id="pb2bba1fd12">
   <rect x="57.17" y="10.8" width="392.83" height="292.84"/>
  </clipPath>
 </defs>
</svg>
