<?xml version="1.0" encoding="utf-8" standalone="no"?>
<!DOCTYPE svg PUBLIC "-//W3C//DTD SVG 1.1//EN"
  "http://www.w3.org/Graphics/SVG/1.1/DTD/svg11.dtd">
<svg xmlns:xlink="http://www.w3.org/1999/xlink" width="460.8pt" height="345.6pt" viewBox="0 0 460.8 345.6" xmlns="http://www.w3.org/2000/svg" version="1.1">
 <metadata>
  <rdf:RDF xmlns:dc="http://purl.org/dc/elements/1.1/" xmlns:cc="http://creativecommons.org/ns#" xmlns:rdf="http://www.w3.org/1999/02/22-rdf-syntax-ns#">
   <cc:Work>
    <dc:type rdf:resource="http://purl.org/dc/dcmitype/StillImage"/>
    <dc:date>2024-11-29T19:03:50.857600</dc:date>
    <dc:format>image/svg+xml</dc:format>
    <dc:creator>
     <cc:Agent>
      <dc:title>Matplotlib v3.9.2, https://matplotlib.org/</dc:title>
     </cc:Agent>
    </dc:creator>
   </cc:Work>
  </rdf:RDF>
 </metadata>
 <defs>
  <style type="text/css">*{stroke-linejoin: round; stroke-linecap: butt}</style>
 </defs>
 <g id="figure_1">
  <g id="patch_1">
   <path d="M 0 345.6 
L 460.8 345.6 
L 460.8 0 
L 0 0 
z
" style="fill: #ffffff"/>
  </g>
  <g id="axes_1">
   <g id="patch_2">
    <path d="M 44.57 303.64 
L 450 303.64 
L 450 10.8 
L 44.57 10.8 
z
" style="fill: #ffffff"/>
   </g>
   <g id="patch_3">
    <path d="M 62.998636 303.64 
L 82.397201 303.64 
L 82.397201 299.282262 
L 62.998636 299.282262 
z
" clip-path="url(#p5708e910e6)" style="fill: #0000ff"/>
   </g>
   <g id="patch_4">
    <path d="M 140.592895 303.64 
L 159.991459 303.64 
L 159.991459 303.64 
L 140.592895 303.64 
z
" clip-path="url(#p5708e910e6)" style="fill: #0000ff"/>
   </g>
   <g id="patch_5">
    <path d="M 218.187153 303.64 
L 237.585718 303.64 
L 237.585718 277.493571 
L 218.187153 277.493571 
z
" clip-path="url(#p5708e910e6)" style="fill: #0000ff"/>
   </g>
   <g id="patch_6">
    <path d="M 295.781411 303.64 
L 315.179976 303.64 
L 315.179976 260.062619 
L 295.781411 260.062619 
z
" clip-path="url(#p5708e910e6)" style="fill: #0000ff"/>
   </g>
   <g id="patch_7">
    <path d="M 373.37567 303.64 
L 392.774234 303.64 
L 392.774234 98.82631 
L 373.37567 98.82631 
z
" clip-path="url(#p5708e910e6)" style="fill: #0000ff"/>
   </g>
   <g id="patch_8">
    <path d="M 82.397201 303.64 
L 101.795766 303.64 
L 101.795766 303.64 
L 82.397201 303.64 
z
" clip-path="url(#p5708e910e6)" style="fill: #008000"/>
   </g>
   <g id="patch_9">
    <path d="M 159.991459 303.64 
L 179.390024 303.64 
L 179.390024 303.64 
L 159.991459 303.64 
z
" clip-path="url(#p5708e910e6)" style="fill: #008000"/>
   </g>
   <g id="patch_10">
    <path d="M 237.585718 303.64 
L 256.984282 303.64 
L 256.984282 303.64 
L 237.585718 303.64 
z
" clip-path="url(#p5708e910e6)" style="fill: #008000"/>
   </g>
   <g id="patch_11">
    <path d="M 315.179976 303.64 
L 334.578541 303.64 
L 334.578541 299.282262 
L 315.179976 299.282262 
z
" clip-path="url(#p5708e910e6)" style="fill: #008000"/>
   </g>
   <g id="patch_12">
    <path d="M 392.774234 303.64 
L 412.172799 303.64 
L 412.172799 303.64 
L 392.774234 303.64 
z
" clip-path="url(#p5708e910e6)" style="fill: #008000"/>
   </g>
   <g id="patch_13">
    <path d="M 101.795766 303.64 
L 121.19433 303.64 
L 121.19433 303.64 
L 101.795766 303.64 
z
" clip-path="url(#p5708e910e6)" style="fill: #ff0000"/>
   </g>
   <g id="patch_14">
    <path d="M 179.390024 303.64 
L 198.788589 303.64 
L 198.788589 303.64 
L 179.390024 303.64 
z
" clip-path="url(#p5708e910e6)" style="fill: #ff0000"/>
   </g>
   <g id="patch_15">
    <path d="M 256.984282 303.64 
L 276.382847 303.64 
L 276.382847 303.64 
L 256.984282 303.64 
z
" clip-path="url(#p5708e910e6)" style="fill: #ff0000"/>
   </g>
   <g id="patch_16">
    <path d="M 334.578541 303.64 
L 353.977105 303.64 
L 353.977105 303.64 
L 334.578541 303.64 
z
" clip-path="url(#p5708e910e6)" style="fill: #ff0000"/>
   </g>
   <g id="patch_17">
    <path d="M 412.172799 303.64 
L 431.571364 303.64 
L 431.571364 303.64 
L 412.172799 303.64 
z
" clip-path="url(#p5708e910e6)" style="fill: #ff0000"/>
   </g>
   <g id="patch_18">
    <path d="M 62.998636 299.282262 
L 82.397201 299.282262 
L 82.397201 294.924524 
L 62.998636 294.924524 
z
" clip-path="url(#p5708e910e6)" style="fill: #add8e6"/>
   </g>
   <g id="patch_19">
    <path d="M 140.592895 303.64 
L 159.991459 303.64 
L 159.991459 303.64 
L 140.592895 303.64 
z
" clip-path="url(#p5708e910e6)" style="fill: #add8e6"/>
   </g>
   <g id="patch_20">
    <path d="M 218.187153 277.493571 
L 237.585718 277.493571 
L 237.585718 246.989405 
L 218.187153 246.989405 
z
" clip-path="url(#p5708e910e6)" style="fill: #add8e6"/>
   </g>
   <g id="patch_21">
    <path d="M 295.781411 260.062619 
L 315.179976 260.062619 
L 315.179976 212.1275 
L 295.781411 212.1275 
z
" clip-path="url(#p5708e910e6)" style="fill: #add8e6"/>
   </g>
   <g id="patch_22">
    <path d="M 373.37567 98.82631 
L 392.774234 98.82631 
L 392.774234 24.744762 
L 373.37567 24.744762 
z
" clip-path="url(#p5708e910e6)" style="fill: #add8e6"/>
   </g>
   <g id="patch_23">
    <path d="M 82.397201 303.64 
L 101.795766 303.64 
L 101.795766 294.924524 
L 82.397201 294.924524 
z
" clip-path="url(#p5708e910e6)" style="fill: #90ee90"/>
   </g>
   <g id="patch_24">
    <path d="M 159.991459 303.64 
L 179.390024 303.64 
L 179.390024 303.64 
L 159.991459 303.64 
z
" clip-path="url(#p5708e910e6)" style="fill: #90ee90"/>
   </g>
   <g id="patch_25">
    <path d="M 237.585718 303.64 
L 256.984282 303.64 
L 256.984282 246.989405 
L 237.585718 246.989405 
z
" clip-path="url(#p5708e910e6)" style="fill: #90ee90"/>
   </g>
   <g id="patch_26">
    <path d="M 315.179976 299.282262 
L 334.578541 299.282262 
L 334.578541 212.1275 
L 315.179976 212.1275 
z
" clip-path="url(#p5708e910e6)" style="fill: #90ee90"/>
   </g>
   <g id="patch_27">
    <path d="M 392.774234 303.64 
L 412.172799 303.64 
L 412.172799 24.744762 
L 392.774234 24.744762 
z
" clip-path="url(#p5708e910e6)" style="fill: #90ee90"/>
   </g>
   <g id="patch_28">
    <path d="M 101.795766 303.64 
L 121.19433 303.64 
L 121.19433 294.924524 
L 101.795766 294.924524 
z
" clip-path="url(#p5708e910e6)" style="fill: #f08080"/>
   </g>
   <g id="patch_29">
    <path d="M 179.390024 303.64 
L 198.788589 303.64 
L 198.788589 303.64 
L 179.390024 303.64 
z
" clip-path="url(#p5708e910e6)" style="fill: #f08080"/>
   </g>
   <g id="patch_30">
    <path d="M 256.984282 303.64 
L 276.382847 303.64 
L 276.382847 246.989405 
L 256.984282 246.989405 
z
" clip-path="url(#p5708e910e6)" style="fill: #f08080"/>
   </g>
   <g id="patch_31">
    <path d="M 334.578541 303.64 
L 353.977105 303.64 
L 353.977105 212.1275 
L 334.578541 212.1275 
z
" clip-path="url(#p5708e910e6)" style="fill: #f08080"/>
   </g>
   <g id="patch_32">
    <path d="M 412.172799 303.64 
L 431.571364 303.64 
L 431.571364 24.744762 
L 412.172799 24.744762 
z
" clip-path="url(#p5708e910e6)" style="fill: #f08080"/>
   </g>
   <g id="matplotlib.axis_1">
    <g id="xtick_1">
     <g id="line2d_1">
      <defs>
       <path id="m6233278430" d="M 0 0 
L 0 3.5 
" style="stroke: #000000; stroke-width: 0.8"/>
      </defs>
      <g>
       <use xlink:href="#m6233278430" x="92.096483" y="303.64" style="stroke: #000000; stroke-width: 0.8"/>
      </g>
     </g>
     <g id="text_1">
      <!-- CRAN -->
      <g transform="translate(78.169921 318.238437) scale(0.1 -0.1)">
       <defs>
        <path id="DejaVuSans-43" d="M 4122 4306 
L 4122 3641 
Q 3803 3938 3442 4084 
Q 3081 4231 2675 4231 
Q 1875 4231 1450 3742 
Q 1025 3253 1025 2328 
Q 1025 1406 1450 917 
Q 1875 428 2675 428 
Q 3081 428 3442 575 
Q 3803 722 4122 1019 
L 4122 359 
Q 3791 134 3420 21 
Q 3050 -91 2638 -91 
Q 1578 -91 968 557 
Q 359 1206 359 2328 
Q 359 3453 968 4101 
Q 1578 4750 2638 4750 
Q 3056 4750 3426 4639 
Q 3797 4528 4122 4306 
z
" transform="scale(0.015625)"/>
        <path id="DejaVuSans-52" d="M 2841 2188 
Q 3044 2119 3236 1894 
Q 3428 1669 3622 1275 
L 4263 0 
L 3584 0 
L 2988 1197 
Q 2756 1666 2539 1819 
Q 2322 1972 1947 1972 
L 1259 1972 
L 1259 0 
L 628 0 
L 628 4666 
L 2053 4666 
Q 2853 4666 3247 4331 
Q 3641 3997 3641 3322 
Q 3641 2881 3436 2590 
Q 3231 2300 2841 2188 
z
M 1259 4147 
L 1259 2491 
L 2053 2491 
Q 2509 2491 2742 2702 
Q 2975 2913 2975 3322 
Q 2975 3731 2742 3939 
Q 2509 4147 2053 4147 
L 1259 4147 
z
" transform="scale(0.015625)"/>
        <path id="DejaVuSans-41" d="M 2188 4044 
L 1331 1722 
L 3047 1722 
L 2188 4044 
z
M 1831 4666 
L 2547 4666 
L 4325 0 
L 3669 0 
L 3244 1197 
L 1141 1197 
L 716 0 
L 50 0 
L 1831 4666 
z
" transform="scale(0.015625)"/>
        <path id="DejaVuSans-4e" d="M 628 4666 
L 1478 4666 
L 3547 763 
L 3547 4666 
L 4159 4666 
L 4159 0 
L 3309 0 
L 1241 3903 
L 1241 0 
L 628 0 
L 628 4666 
z
" transform="scale(0.015625)"/>
       </defs>
       <use xlink:href="#DejaVuSans-43"/>
       <use xlink:href="#DejaVuSans-52" x="69.824219"/>
       <use xlink:href="#DejaVuSans-41" x="135.306641"/>
       <use xlink:href="#DejaVuSans-4e" x="203.714844"/>
      </g>
     </g>
    </g>
    <g id="xtick_2">
     <g id="line2d_2">
      <g>
       <use xlink:href="#m6233278430" x="169.690742" y="303.64" style="stroke: #000000; stroke-width: 0.8"/>
      </g>
     </g>
     <g id="text_2">
      <!-- PyPi -->
      <g transform="translate(159.425117 318.238437) scale(0.1 -0.1)">
       <defs>
        <path id="DejaVuSans-50" d="M 1259 4147 
L 1259 2394 
L 2053 2394 
Q 2494 2394 2734 2622 
Q 2975 2850 2975 3272 
Q 2975 3691 2734 3919 
Q 2494 4147 2053 4147 
L 1259 4147 
z
M 628 4666 
L 2053 4666 
Q 2838 4666 3239 4311 
Q 3641 3956 3641 3272 
Q 3641 2581 3239 2228 
Q 2838 1875 2053 1875 
L 1259 1875 
L 1259 0 
L 628 0 
L 628 4666 
z
" transform="scale(0.015625)"/>
        <path id="DejaVuSans-79" d="M 2059 -325 
Q 1816 -950 1584 -1140 
Q 1353 -1331 966 -1331 
L 506 -1331 
L 506 -850 
L 844 -850 
Q 1081 -850 1212 -737 
Q 1344 -625 1503 -206 
L 1606 56 
L 191 3500 
L 800 3500 
L 1894 763 
L 2988 3500 
L 3597 3500 
L 2059 -325 
z
" transform="scale(0.015625)"/>
        <path id="DejaVuSans-69" d="M 603 3500 
L 1178 3500 
L 1178 0 
L 603 0 
L 603 3500 
z
M 603 4863 
L 1178 4863 
L 1178 4134 
L 603 4134 
L 603 4863 
z
" transform="scale(0.015625)"/>
       </defs>
       <use xlink:href="#DejaVuSans-50"/>
       <use xlink:href="#DejaVuSans-79" x="60.302734"/>
       <use xlink:href="#DejaVuSans-50" x="119.482422"/>
       <use xlink:href="#DejaVuSans-69" x="177.535156"/>
      </g>
     </g>
    </g>
    <g id="xtick_3">
     <g id="line2d_3">
      <g>
       <use xlink:href="#m6233278430" x="247.285" y="303.64" style="stroke: #000000; stroke-width: 0.8"/>
      </g>
     </g>
     <g id="text_3">
      <!-- CFF -->
      <g transform="translate(238.042031 318.238437) scale(0.1 -0.1)">
       <defs>
        <path id="DejaVuSans-46" d="M 628 4666 
L 3309 4666 
L 3309 4134 
L 1259 4134 
L 1259 2759 
L 3109 2759 
L 3109 2228 
L 1259 2228 
L 1259 0 
L 628 0 
L 628 4666 
z
" transform="scale(0.015625)"/>
       </defs>
       <use xlink:href="#DejaVuSans-43"/>
       <use xlink:href="#DejaVuSans-46" x="69.824219"/>
       <use xlink:href="#DejaVuSans-46" x="127.34375"/>
      </g>
     </g>
    </g>
    <g id="xtick_4">
     <g id="line2d_4">
      <g>
       <use xlink:href="#m6233278430" x="324.879258" y="303.64" style="stroke: #000000; stroke-width: 0.8"/>
      </g>
     </g>
     <g id="text_4">
      <!-- PyPi CFF -->
      <g transform="translate(303.781602 318.238437) scale(0.1 -0.1)">
       <defs>
        <path id="DejaVuSans-20" transform="scale(0.015625)"/>
       </defs>
       <use xlink:href="#DejaVuSans-50"/>
       <use xlink:href="#DejaVuSans-79" x="60.302734"/>
       <use xlink:href="#DejaVuSans-50" x="119.482422"/>
       <use xlink:href="#DejaVuSans-69" x="177.535156"/>
       <use xlink:href="#DejaVuSans-20" x="205.318359"/>
       <use xlink:href="#DejaVuSans-43" x="237.105469"/>
       <use xlink:href="#DejaVuSans-46" x="306.929688"/>
       <use xlink:href="#DejaVuSans-46" x="364.449219"/>
      </g>
     </g>
    </g>
    <g id="xtick_5">
     <g id="line2d_5">
      <g>
       <use xlink:href="#m6233278430" x="402.473517" y="303.64" style="stroke: #000000; stroke-width: 0.8"/>
      </g>
     </g>
     <g id="text_5">
      <!-- CRAN CFF -->
      <g transform="translate(377.714923 318.238437) scale(0.1 -0.1)">
       <use xlink:href="#DejaVuSans-43"/>
       <use xlink:href="#DejaVuSans-52" x="69.824219"/>
       <use xlink:href="#DejaVuSans-41" x="135.306641"/>
       <use xlink:href="#DejaVuSans-4e" x="203.714844"/>
       <use xlink:href="#DejaVuSans-20" x="278.519531"/>
       <use xlink:href="#DejaVuSans-43" x="310.306641"/>
       <use xlink:href="#DejaVuSans-46" x="380.130859"/>
       <use xlink:href="#DejaVuSans-46" x="437.650391"/>
      </g>
     </g>
    </g>
    <g id="text_6">
     <!-- Liste -->
     <g transform="translate(235.468594 331.916562) scale(0.1 -0.1)">
      <defs>
       <path id="DejaVuSans-4c" d="M 628 4666 
L 1259 4666 
L 1259 531 
L 3531 531 
L 3531 0 
L 628 0 
L 628 4666 
z
" transform="scale(0.015625)"/>
       <path id="DejaVuSans-73" d="M 2834 3397 
L 2834 2853 
Q 2591 2978 2328 3040 
Q 2066 3103 1784 3103 
Q 1356 3103 1142 2972 
Q 928 2841 928 2578 
Q 928 2378 1081 2264 
Q 1234 2150 1697 2047 
L 1894 2003 
Q 2506 1872 2764 1633 
Q 3022 1394 3022 966 
Q 3022 478 2636 193 
Q 2250 -91 1575 -91 
Q 1294 -91 989 -36 
Q 684 19 347 128 
L 347 722 
Q 666 556 975 473 
Q 1284 391 1588 391 
Q 1994 391 2212 530 
Q 2431 669 2431 922 
Q 2431 1156 2273 1281 
Q 2116 1406 1581 1522 
L 1381 1569 
Q 847 1681 609 1914 
Q 372 2147 372 2553 
Q 372 3047 722 3315 
Q 1072 3584 1716 3584 
Q 2034 3584 2315 3537 
Q 2597 3491 2834 3397 
z
" transform="scale(0.015625)"/>
       <path id="DejaVuSans-74" d="M 1172 4494 
L 1172 3500 
L 2356 3500 
L 2356 3053 
L 1172 3053 
L 1172 1153 
Q 1172 725 1289 603 
Q 1406 481 1766 481 
L 2356 481 
L 2356 0 
L 1766 0 
Q 1100 0 847 248 
Q 594 497 594 1153 
L 594 3053 
L 172 3053 
L 172 3500 
L 594 3500 
L 594 4494 
L 1172 4494 
z
" transform="scale(0.015625)"/>
       <path id="DejaVuSans-65" d="M 3597 1894 
L 3597 1613 
L 953 1613 
Q 991 1019 1311 708 
Q 1631 397 2203 397 
Q 2534 397 2845 478 
Q 3156 559 3463 722 
L 3463 178 
Q 3153 47 2828 -22 
Q 2503 -91 2169 -91 
Q 1331 -91 842 396 
Q 353 884 353 1716 
Q 353 2575 817 3079 
Q 1281 3584 2069 3584 
Q 2775 3584 3186 3129 
Q 3597 2675 3597 1894 
z
M 3022 2063 
Q 3016 2534 2758 2815 
Q 2500 3097 2075 3097 
Q 1594 3097 1305 2825 
Q 1016 2553 972 2059 
L 3022 2063 
z
" transform="scale(0.015625)"/>
      </defs>
      <use xlink:href="#DejaVuSans-4c"/>
      <use xlink:href="#DejaVuSans-69" x="55.712891"/>
      <use xlink:href="#DejaVuSans-73" x="83.496094"/>
      <use xlink:href="#DejaVuSans-74" x="135.595703"/>
      <use xlink:href="#DejaVuSans-65" x="174.804688"/>
     </g>
    </g>
   </g>
   <g id="matplotlib.axis_2">
    <g id="ytick_1">
     <g id="line2d_6">
      <defs>
       <path id="meadad63218" d="M 0 0 
L -3.5 0 
" style="stroke: #000000; stroke-width: 0.8"/>
      </defs>
      <g>
       <use xlink:href="#meadad63218" x="44.57" y="303.64" style="stroke: #000000; stroke-width: 0.8"/>
      </g>
     </g>
     <g id="text_7">
      <!-- 0 -->
      <g transform="translate(31.2075 307.439219) scale(0.1 -0.1)">
       <defs>
        <path id="DejaVuSans-30" d="M 2034 4250 
Q 1547 4250 1301 3770 
Q 1056 3291 1056 2328 
Q 1056 1369 1301 889 
Q 1547 409 2034 409 
Q 2525 409 2770 889 
Q 3016 1369 3016 2328 
Q 3016 3291 2770 3770 
Q 2525 4250 2034 4250 
z
M 2034 4750 
Q 2819 4750 3233 4129 
Q 3647 3509 3647 2328 
Q 3647 1150 3233 529 
Q 2819 -91 2034 -91 
Q 1250 -91 836 529 
Q 422 1150 422 2328 
Q 422 3509 836 4129 
Q 1250 4750 2034 4750 
z
" transform="scale(0.015625)"/>
       </defs>
       <use xlink:href="#DejaVuSans-30"/>
      </g>
     </g>
    </g>
    <g id="ytick_2">
     <g id="line2d_7">
      <g>
       <use xlink:href="#meadad63218" x="44.57" y="260.062619" style="stroke: #000000; stroke-width: 0.8"/>
      </g>
     </g>
     <g id="text_8">
      <!-- 10 -->
      <g transform="translate(24.845 263.861838) scale(0.1 -0.1)">
       <defs>
        <path id="DejaVuSans-31" d="M 794 531 
L 1825 531 
L 1825 4091 
L 703 3866 
L 703 4441 
L 1819 4666 
L 2450 4666 
L 2450 531 
L 3481 531 
L 3481 0 
L 794 0 
L 794 531 
z
" transform="scale(0.015625)"/>
       </defs>
       <use xlink:href="#DejaVuSans-31"/>
       <use xlink:href="#DejaVuSans-30" x="63.623047"/>
      </g>
     </g>
    </g>
    <g id="ytick_3">
     <g id="line2d_8">
      <g>
       <use xlink:href="#meadad63218" x="44.57" y="216.485238" style="stroke: #000000; stroke-width: 0.8"/>
      </g>
     </g>
     <g id="text_9">
      <!-- 20 -->
      <g transform="translate(24.845 220.284457) scale(0.1 -0.1)">
       <defs>
        <path id="DejaVuSans-32" d="M 1228 531 
L 3431 531 
L 3431 0 
L 469 0 
L 469 531 
Q 828 903 1448 1529 
Q 2069 2156 2228 2338 
Q 2531 2678 2651 2914 
Q 2772 3150 2772 3378 
Q 2772 3750 2511 3984 
Q 2250 4219 1831 4219 
Q 1534 4219 1204 4116 
Q 875 4013 500 3803 
L 500 4441 
Q 881 4594 1212 4672 
Q 1544 4750 1819 4750 
Q 2544 4750 2975 4387 
Q 3406 4025 3406 3419 
Q 3406 3131 3298 2873 
Q 3191 2616 2906 2266 
Q 2828 2175 2409 1742 
Q 1991 1309 1228 531 
z
" transform="scale(0.015625)"/>
       </defs>
       <use xlink:href="#DejaVuSans-32"/>
       <use xlink:href="#DejaVuSans-30" x="63.623047"/>
      </g>
     </g>
    </g>
    <g id="ytick_4">
     <g id="line2d_9">
      <g>
       <use xlink:href="#meadad63218" x="44.57" y="172.907857" style="stroke: #000000; stroke-width: 0.8"/>
      </g>
     </g>
     <g id="text_10">
      <!-- 30 -->
      <g transform="translate(24.845 176.707076) scale(0.1 -0.1)">
       <defs>
        <path id="DejaVuSans-33" d="M 2597 2516 
Q 3050 2419 3304 2112 
Q 3559 1806 3559 1356 
Q 3559 666 3084 287 
Q 2609 -91 1734 -91 
Q 1441 -91 1130 -33 
Q 819 25 488 141 
L 488 750 
Q 750 597 1062 519 
Q 1375 441 1716 441 
Q 2309 441 2620 675 
Q 2931 909 2931 1356 
Q 2931 1769 2642 2001 
Q 2353 2234 1838 2234 
L 1294 2234 
L 1294 2753 
L 1863 2753 
Q 2328 2753 2575 2939 
Q 2822 3125 2822 3475 
Q 2822 3834 2567 4026 
Q 2313 4219 1838 4219 
Q 1578 4219 1281 4162 
Q 984 4106 628 3988 
L 628 4550 
Q 988 4650 1302 4700 
Q 1616 4750 1894 4750 
Q 2613 4750 3031 4423 
Q 3450 4097 3450 3541 
Q 3450 3153 3228 2886 
Q 3006 2619 2597 2516 
z
" transform="scale(0.015625)"/>
       </defs>
       <use xlink:href="#DejaVuSans-33"/>
       <use xlink:href="#DejaVuSans-30" x="63.623047"/>
      </g>
     </g>
    </g>
    <g id="ytick_5">
     <g id="line2d_10">
      <g>
       <use xlink:href="#meadad63218" x="44.57" y="129.330476" style="stroke: #000000; stroke-width: 0.8"/>
      </g>
     </g>
     <g id="text_11">
      <!-- 40 -->
      <g transform="translate(24.845 133.129695) scale(0.1 -0.1)">
       <defs>
        <path id="DejaVuSans-34" d="M 2419 4116 
L 825 1625 
L 2419 1625 
L 2419 4116 
z
M 2253 4666 
L 3047 4666 
L 3047 1625 
L 3713 1625 
L 3713 1100 
L 3047 1100 
L 3047 0 
L 2419 0 
L 2419 1100 
L 313 1100 
L 313 1709 
L 2253 4666 
z
" transform="scale(0.015625)"/>
       </defs>
       <use xlink:href="#DejaVuSans-34"/>
       <use xlink:href="#DejaVuSans-30" x="63.623047"/>
      </g>
     </g>
    </g>
    <g id="ytick_6">
     <g id="line2d_11">
      <g>
       <use xlink:href="#meadad63218" x="44.57" y="85.753095" style="stroke: #000000; stroke-width: 0.8"/>
      </g>
     </g>
     <g id="text_12">
      <!-- 50 -->
      <g transform="translate(24.845 89.552314) scale(0.1 -0.1)">
       <defs>
        <path id="DejaVuSans-35" d="M 691 4666 
L 3169 4666 
L 3169 4134 
L 1269 4134 
L 1269 2991 
Q 1406 3038 1543 3061 
Q 1681 3084 1819 3084 
Q 2600 3084 3056 2656 
Q 3513 2228 3513 1497 
Q 3513 744 3044 326 
Q 2575 -91 1722 -91 
Q 1428 -91 1123 -41 
Q 819 9 494 109 
L 494 744 
Q 775 591 1075 516 
Q 1375 441 1709 441 
Q 2250 441 2565 725 
Q 2881 1009 2881 1497 
Q 2881 1984 2565 2268 
Q 2250 2553 1709 2553 
Q 1456 2553 1204 2497 
Q 953 2441 691 2322 
L 691 4666 
z
" transform="scale(0.015625)"/>
       </defs>
       <use xlink:href="#DejaVuSans-35"/>
       <use xlink:href="#DejaVuSans-30" x="63.623047"/>
      </g>
     </g>
    </g>
    <g id="ytick_7">
     <g id="line2d_12">
      <g>
       <use xlink:href="#meadad63218" x="44.57" y="42.175714" style="stroke: #000000; stroke-width: 0.8"/>
      </g>
     </g>
     <g id="text_13">
      <!-- 60 -->
      <g transform="translate(24.845 45.974933) scale(0.1 -0.1)">
       <defs>
        <path id="DejaVuSans-36" d="M 2113 2584 
Q 1688 2584 1439 2293 
Q 1191 2003 1191 1497 
Q 1191 994 1439 701 
Q 1688 409 2113 409 
Q 2538 409 2786 701 
Q 3034 994 3034 1497 
Q 3034 2003 2786 2293 
Q 2538 2584 2113 2584 
z
M 3366 4563 
L 3366 3988 
Q 3128 4100 2886 4159 
Q 2644 4219 2406 4219 
Q 1781 4219 1451 3797 
Q 1122 3375 1075 2522 
Q 1259 2794 1537 2939 
Q 1816 3084 2150 3084 
Q 2853 3084 3261 2657 
Q 3669 2231 3669 1497 
Q 3669 778 3244 343 
Q 2819 -91 2113 -91 
Q 1303 -91 875 529 
Q 447 1150 447 2328 
Q 447 3434 972 4092 
Q 1497 4750 2381 4750 
Q 2619 4750 2861 4703 
Q 3103 4656 3366 4563 
z
" transform="scale(0.015625)"/>
       </defs>
       <use xlink:href="#DejaVuSans-36"/>
       <use xlink:href="#DejaVuSans-30" x="63.623047"/>
      </g>
     </g>
    </g>
    <g id="text_14">
     <!-- Preferred Citation CFF Anzahl -->
     <g transform="translate(18.765313 230.492656) rotate(-90) scale(0.1 -0.1)">
      <defs>
       <path id="DejaVuSans-72" d="M 2631 2963 
Q 2534 3019 2420 3045 
Q 2306 3072 2169 3072 
Q 1681 3072 1420 2755 
Q 1159 2438 1159 1844 
L 1159 0 
L 581 0 
L 581 3500 
L 1159 3500 
L 1159 2956 
Q 1341 3275 1631 3429 
Q 1922 3584 2338 3584 
Q 2397 3584 2469 3576 
Q 2541 3569 2628 3553 
L 2631 2963 
z
" transform="scale(0.015625)"/>
       <path id="DejaVuSans-66" d="M 2375 4863 
L 2375 4384 
L 1825 4384 
Q 1516 4384 1395 4259 
Q 1275 4134 1275 3809 
L 1275 3500 
L 2222 3500 
L 2222 3053 
L 1275 3053 
L 1275 0 
L 697 0 
L 697 3053 
L 147 3053 
L 147 3500 
L 697 3500 
L 697 3744 
Q 697 4328 969 4595 
Q 1241 4863 1831 4863 
L 2375 4863 
z
" transform="scale(0.015625)"/>
       <path id="DejaVuSans-64" d="M 2906 2969 
L 2906 4863 
L 3481 4863 
L 3481 0 
L 2906 0 
L 2906 525 
Q 2725 213 2448 61 
Q 2172 -91 1784 -91 
Q 1150 -91 751 415 
Q 353 922 353 1747 
Q 353 2572 751 3078 
Q 1150 3584 1784 3584 
Q 2172 3584 2448 3432 
Q 2725 3281 2906 2969 
z
M 947 1747 
Q 947 1113 1208 752 
Q 1469 391 1925 391 
Q 2381 391 2643 752 
Q 2906 1113 2906 1747 
Q 2906 2381 2643 2742 
Q 2381 3103 1925 3103 
Q 1469 3103 1208 2742 
Q 947 2381 947 1747 
z
" transform="scale(0.015625)"/>
       <path id="DejaVuSans-61" d="M 2194 1759 
Q 1497 1759 1228 1600 
Q 959 1441 959 1056 
Q 959 750 1161 570 
Q 1363 391 1709 391 
Q 2188 391 2477 730 
Q 2766 1069 2766 1631 
L 2766 1759 
L 2194 1759 
z
M 3341 1997 
L 3341 0 
L 2766 0 
L 2766 531 
Q 2569 213 2275 61 
Q 1981 -91 1556 -91 
Q 1019 -91 701 211 
Q 384 513 384 1019 
Q 384 1609 779 1909 
Q 1175 2209 1959 2209 
L 2766 2209 
L 2766 2266 
Q 2766 2663 2505 2880 
Q 2244 3097 1772 3097 
Q 1472 3097 1187 3025 
Q 903 2953 641 2809 
L 641 3341 
Q 956 3463 1253 3523 
Q 1550 3584 1831 3584 
Q 2591 3584 2966 3190 
Q 3341 2797 3341 1997 
z
" transform="scale(0.015625)"/>
       <path id="DejaVuSans-6f" d="M 1959 3097 
Q 1497 3097 1228 2736 
Q 959 2375 959 1747 
Q 959 1119 1226 758 
Q 1494 397 1959 397 
Q 2419 397 2687 759 
Q 2956 1122 2956 1747 
Q 2956 2369 2687 2733 
Q 2419 3097 1959 3097 
z
M 1959 3584 
Q 2709 3584 3137 3096 
Q 3566 2609 3566 1747 
Q 3566 888 3137 398 
Q 2709 -91 1959 -91 
Q 1206 -91 779 398 
Q 353 888 353 1747 
Q 353 2609 779 3096 
Q 1206 3584 1959 3584 
z
" transform="scale(0.015625)"/>
       <path id="DejaVuSans-6e" d="M 3513 2113 
L 3513 0 
L 2938 0 
L 2938 2094 
Q 2938 2591 2744 2837 
Q 2550 3084 2163 3084 
Q 1697 3084 1428 2787 
Q 1159 2491 1159 1978 
L 1159 0 
L 581 0 
L 581 3500 
L 1159 3500 
L 1159 2956 
Q 1366 3272 1645 3428 
Q 1925 3584 2291 3584 
Q 2894 3584 3203 3211 
Q 3513 2838 3513 2113 
z
" transform="scale(0.015625)"/>
       <path id="DejaVuSans-7a" d="M 353 3500 
L 3084 3500 
L 3084 2975 
L 922 459 
L 3084 459 
L 3084 0 
L 275 0 
L 275 525 
L 2438 3041 
L 353 3041 
L 353 3500 
z
" transform="scale(0.015625)"/>
       <path id="DejaVuSans-68" d="M 3513 2113 
L 3513 0 
L 2938 0 
L 2938 2094 
Q 2938 2591 2744 2837 
Q 2550 3084 2163 3084 
Q 1697 3084 1428 2787 
Q 1159 2491 1159 1978 
L 1159 0 
L 581 0 
L 581 4863 
L 1159 4863 
L 1159 2956 
Q 1366 3272 1645 3428 
Q 1925 3584 2291 3584 
Q 2894 3584 3203 3211 
Q 3513 2838 3513 2113 
z
" transform="scale(0.015625)"/>
       <path id="DejaVuSans-6c" d="M 603 4863 
L 1178 4863 
L 1178 0 
L 603 0 
L 603 4863 
z
" transform="scale(0.015625)"/>
      </defs>
      <use xlink:href="#DejaVuSans-50"/>
      <use xlink:href="#DejaVuSans-72" x="58.552734"/>
      <use xlink:href="#DejaVuSans-65" x="97.416016"/>
      <use xlink:href="#DejaVuSans-66" x="158.939453"/>
      <use xlink:href="#DejaVuSans-65" x="194.144531"/>
      <use xlink:href="#DejaVuSans-72" x="255.667969"/>
      <use xlink:href="#DejaVuSans-72" x="295.03125"/>
      <use xlink:href="#DejaVuSans-65" x="333.894531"/>
      <use xlink:href="#DejaVuSans-64" x="395.417969"/>
      <use xlink:href="#DejaVuSans-20" x="458.894531"/>
      <use xlink:href="#DejaVuSans-43" x="490.681641"/>
      <use xlink:href="#DejaVuSans-69" x="560.505859"/>
      <use xlink:href="#DejaVuSans-74" x="588.289062"/>
      <use xlink:href="#DejaVuSans-61" x="627.498047"/>
      <use xlink:href="#DejaVuSans-74" x="688.777344"/>
      <use xlink:href="#DejaVuSans-69" x="727.986328"/>
      <use xlink:href="#DejaVuSans-6f" x="755.769531"/>
      <use xlink:href="#DejaVuSans-6e" x="816.951172"/>
      <use xlink:href="#DejaVuSans-20" x="880.330078"/>
      <use xlink:href="#DejaVuSans-43" x="912.117188"/>
      <use xlink:href="#DejaVuSans-46" x="981.941406"/>
      <use xlink:href="#DejaVuSans-46" x="1039.460938"/>
      <use xlink:href="#DejaVuSans-20" x="1096.980469"/>
      <use xlink:href="#DejaVuSans-41" x="1128.767578"/>
      <use xlink:href="#DejaVuSans-6e" x="1197.175781"/>
      <use xlink:href="#DejaVuSans-7a" x="1260.554688"/>
      <use xlink:href="#DejaVuSans-61" x="1313.044922"/>
      <use xlink:href="#DejaVuSans-68" x="1374.324219"/>
      <use xlink:href="#DejaVuSans-6c" x="1437.703125"/>
     </g>
    </g>
   </g>
   <g id="patch_33">
    <path d="M 44.57 303.64 
L 44.57 10.8 
" style="fill: none; stroke: #000000; stroke-width: 0.8; stroke-linejoin: miter; stroke-linecap: square"/>
   </g>
   <g id="patch_34">
    <path d="M 450 303.64 
L 450 10.8 
" style="fill: none; stroke: #000000; stroke-width: 0.8; stroke-linejoin: miter; stroke-linecap: square"/>
   </g>
   <g id="patch_35">
    <path d="M 44.57 303.64 
L 450 303.64 
" style="fill: none; stroke: #000000; stroke-width: 0.8; stroke-linejoin: miter; stroke-linecap: square"/>
   </g>
   <g id="patch_36">
    <path d="M 44.57 10.8 
L 450 10.8 
" style="fill: none; stroke: #000000; stroke-width: 0.8; stroke-linejoin: miter; stroke-linecap: square"/>
   </g>
   <g id="text_15">
    <!-- 1 -->
    <g transform="translate(70.789169 303.116756) scale(0.06 -0.06)">
     <use xlink:href="#DejaVuSans-31"/>
    </g>
   </g>
   <g id="text_16">
    <!-- 6 -->
    <g transform="translate(225.977685 292.222411) scale(0.06 -0.06)">
     <use xlink:href="#DejaVuSans-36"/>
    </g>
   </g>
   <g id="text_17">
    <!-- 10 -->
    <g transform="translate(301.663194 283.506935) scale(0.06 -0.06)">
     <use xlink:href="#DejaVuSans-31"/>
     <use xlink:href="#DejaVuSans-30" x="63.623047"/>
    </g>
   </g>
   <g id="text_18">
    <!-- 47 -->
    <g transform="translate(379.257452 202.88878) scale(0.06 -0.06)">
     <defs>
      <path id="DejaVuSans-37" d="M 525 4666 
L 3525 4666 
L 3525 4397 
L 1831 0 
L 1172 0 
L 2766 4134 
L 525 4134 
L 525 4666 
z
" transform="scale(0.015625)"/>
     </defs>
     <use xlink:href="#DejaVuSans-34"/>
     <use xlink:href="#DejaVuSans-37" x="63.623047"/>
    </g>
   </g>
   <g id="text_19">
    <!-- 1 -->
    <g transform="translate(322.970508 303.116756) scale(0.06 -0.06)">
     <use xlink:href="#DejaVuSans-31"/>
    </g>
   </g>
   <g id="text_20">
    <!-- 1 -->
    <g transform="translate(70.789169 298.759018) scale(0.06 -0.06)">
     <use xlink:href="#DejaVuSans-31"/>
    </g>
   </g>
   <g id="text_21">
    <!-- 7 -->
    <g transform="translate(225.977685 263.897113) scale(0.06 -0.06)">
     <use xlink:href="#DejaVuSans-37"/>
    </g>
   </g>
   <g id="text_22">
    <!-- 11 -->
    <g transform="translate(301.663194 237.750685) scale(0.06 -0.06)">
     <use xlink:href="#DejaVuSans-31"/>
     <use xlink:href="#DejaVuSans-31" x="63.623047"/>
    </g>
   </g>
   <g id="text_23">
    <!-- 17 -->
    <g transform="translate(379.257452 63.441161) scale(0.06 -0.06)">
     <use xlink:href="#DejaVuSans-31"/>
     <use xlink:href="#DejaVuSans-37" x="63.623047"/>
    </g>
   </g>
   <g id="text_24">
    <!-- 2 -->
    <g transform="translate(90.187733 300.937887) scale(0.06 -0.06)">
     <use xlink:href="#DejaVuSans-32"/>
    </g>
   </g>
   <g id="text_25">
    <!-- 13 -->
    <g transform="translate(243.4675 276.970327) scale(0.06 -0.06)">
     <use xlink:href="#DejaVuSans-31"/>
     <use xlink:href="#DejaVuSans-33" x="63.623047"/>
    </g>
   </g>
   <g id="text_26">
    <!-- 20 -->
    <g transform="translate(321.061758 257.360506) scale(0.06 -0.06)">
     <use xlink:href="#DejaVuSans-32"/>
     <use xlink:href="#DejaVuSans-30" x="63.623047"/>
    </g>
   </g>
   <g id="text_27">
    <!-- 64 -->
    <g transform="translate(398.656017 165.848006) scale(0.06 -0.06)">
     <use xlink:href="#DejaVuSans-36"/>
     <use xlink:href="#DejaVuSans-34" x="63.623047"/>
    </g>
   </g>
   <g id="text_28">
    <!-- 2 -->
    <g transform="translate(109.586298 300.937887) scale(0.06 -0.06)">
     <use xlink:href="#DejaVuSans-32"/>
    </g>
   </g>
   <g id="text_29">
    <!-- 13 -->
    <g transform="translate(262.866065 276.970327) scale(0.06 -0.06)">
     <use xlink:href="#DejaVuSans-31"/>
     <use xlink:href="#DejaVuSans-33" x="63.623047"/>
    </g>
   </g>
   <g id="text_30">
    <!-- 21 -->
    <g transform="translate(340.460323 259.539375) scale(0.06 -0.06)">
     <use xlink:href="#DejaVuSans-32"/>
     <use xlink:href="#DejaVuSans-31" x="63.623047"/>
    </g>
   </g>
   <g id="text_31">
    <!-- 64 -->
    <g transform="translate(418.054581 165.848006) scale(0.06 -0.06)">
     <use xlink:href="#DejaVuSans-36"/>
     <use xlink:href="#DejaVuSans-34" x="63.623047"/>
    </g>
   </g>
   <g id="legend_1">
    <g id="patch_37">
     <path d="M 51.57 106.86875 
L 184.612188 106.86875 
Q 186.612188 106.86875 186.612188 104.86875 
L 186.612188 17.8 
Q 186.612188 15.8 184.612188 15.8 
L 51.57 15.8 
Q 49.57 15.8 49.57 17.8 
L 49.57 104.86875 
Q 49.57 106.86875 51.57 106.86875 
z
" style="fill: #ffffff; opacity: 0.8; stroke: #cccccc; stroke-linejoin: miter"/>
    </g>
    <g id="patch_38">
     <path d="M 53.57 27.398438 
L 73.57 27.398438 
L 73.57 20.398438 
L 53.57 20.398438 
z
" style="fill: #0000ff"/>
    </g>
    <g id="text_32">
     <!-- DOI -->
     <g transform="translate(81.57 27.398438) scale(0.1 -0.1)">
      <defs>
       <path id="DejaVuSans-44" d="M 1259 4147 
L 1259 519 
L 2022 519 
Q 2988 519 3436 956 
Q 3884 1394 3884 2338 
Q 3884 3275 3436 3711 
Q 2988 4147 2022 4147 
L 1259 4147 
z
M 628 4666 
L 1925 4666 
Q 3281 4666 3915 4102 
Q 4550 3538 4550 2338 
Q 4550 1131 3912 565 
Q 3275 0 1925 0 
L 628 0 
L 628 4666 
z
" transform="scale(0.015625)"/>
       <path id="DejaVuSans-4f" d="M 2522 4238 
Q 1834 4238 1429 3725 
Q 1025 3213 1025 2328 
Q 1025 1447 1429 934 
Q 1834 422 2522 422 
Q 3209 422 3611 934 
Q 4013 1447 4013 2328 
Q 4013 3213 3611 3725 
Q 3209 4238 2522 4238 
z
M 2522 4750 
Q 3503 4750 4090 4092 
Q 4678 3434 4678 2328 
Q 4678 1225 4090 567 
Q 3503 -91 2522 -91 
Q 1538 -91 948 565 
Q 359 1222 359 2328 
Q 359 3434 948 4092 
Q 1538 4750 2522 4750 
z
" transform="scale(0.015625)"/>
       <path id="DejaVuSans-49" d="M 628 4666 
L 1259 4666 
L 1259 0 
L 628 0 
L 628 4666 
z
" transform="scale(0.015625)"/>
      </defs>
      <use xlink:href="#DejaVuSans-44"/>
      <use xlink:href="#DejaVuSans-4f" x="77.001953"/>
      <use xlink:href="#DejaVuSans-49" x="155.712891"/>
     </g>
    </g>
    <g id="patch_39">
     <path d="M 53.57 42.076563 
L 73.57 42.076563 
L 73.57 35.076563 
L 53.57 35.076563 
z
" style="fill: #008000"/>
    </g>
    <g id="text_33">
     <!-- Identifier DOI -->
     <g transform="translate(81.57 42.076563) scale(0.1 -0.1)">
      <use xlink:href="#DejaVuSans-49"/>
      <use xlink:href="#DejaVuSans-64" x="29.492188"/>
      <use xlink:href="#DejaVuSans-65" x="92.96875"/>
      <use xlink:href="#DejaVuSans-6e" x="154.492188"/>
      <use xlink:href="#DejaVuSans-74" x="217.871094"/>
      <use xlink:href="#DejaVuSans-69" x="257.080078"/>
      <use xlink:href="#DejaVuSans-66" x="284.863281"/>
      <use xlink:href="#DejaVuSans-69" x="320.068359"/>
      <use xlink:href="#DejaVuSans-65" x="347.851562"/>
      <use xlink:href="#DejaVuSans-72" x="409.375"/>
      <use xlink:href="#DejaVuSans-20" x="450.488281"/>
      <use xlink:href="#DejaVuSans-44" x="482.275391"/>
      <use xlink:href="#DejaVuSans-4f" x="559.277344"/>
      <use xlink:href="#DejaVuSans-49" x="637.988281"/>
     </g>
    </g>
    <g id="patch_40">
     <path d="M 53.57 56.754688 
L 73.57 56.754688 
L 73.57 49.754688 
L 53.57 49.754688 
z
" style="fill: #ff0000"/>
    </g>
    <g id="text_34">
     <!-- Collection DOI -->
     <g transform="translate(81.57 56.754688) scale(0.1 -0.1)">
      <defs>
       <path id="DejaVuSans-63" d="M 3122 3366 
L 3122 2828 
Q 2878 2963 2633 3030 
Q 2388 3097 2138 3097 
Q 1578 3097 1268 2742 
Q 959 2388 959 1747 
Q 959 1106 1268 751 
Q 1578 397 2138 397 
Q 2388 397 2633 464 
Q 2878 531 3122 666 
L 3122 134 
Q 2881 22 2623 -34 
Q 2366 -91 2075 -91 
Q 1284 -91 818 406 
Q 353 903 353 1747 
Q 353 2603 823 3093 
Q 1294 3584 2113 3584 
Q 2378 3584 2631 3529 
Q 2884 3475 3122 3366 
z
" transform="scale(0.015625)"/>
      </defs>
      <use xlink:href="#DejaVuSans-43"/>
      <use xlink:href="#DejaVuSans-6f" x="69.824219"/>
      <use xlink:href="#DejaVuSans-6c" x="131.005859"/>
      <use xlink:href="#DejaVuSans-6c" x="158.789062"/>
      <use xlink:href="#DejaVuSans-65" x="186.572266"/>
      <use xlink:href="#DejaVuSans-63" x="248.095703"/>
      <use xlink:href="#DejaVuSans-74" x="303.076172"/>
      <use xlink:href="#DejaVuSans-69" x="342.285156"/>
      <use xlink:href="#DejaVuSans-6f" x="370.068359"/>
      <use xlink:href="#DejaVuSans-6e" x="431.25"/>
      <use xlink:href="#DejaVuSans-20" x="494.628906"/>
      <use xlink:href="#DejaVuSans-44" x="526.416016"/>
      <use xlink:href="#DejaVuSans-4f" x="603.417969"/>
      <use xlink:href="#DejaVuSans-49" x="682.128906"/>
     </g>
    </g>
    <g id="patch_41">
     <path d="M 53.57 71.432813 
L 73.57 71.432813 
L 73.57 64.432813 
L 53.57 64.432813 
z
" style="fill: #add8e6"/>
    </g>
    <g id="text_35">
     <!-- Ohne DOI -->
     <g transform="translate(81.57 71.432813) scale(0.1 -0.1)">
      <use xlink:href="#DejaVuSans-4f"/>
      <use xlink:href="#DejaVuSans-68" x="78.710938"/>
      <use xlink:href="#DejaVuSans-6e" x="142.089844"/>
      <use xlink:href="#DejaVuSans-65" x="205.46875"/>
      <use xlink:href="#DejaVuSans-20" x="266.992188"/>
      <use xlink:href="#DejaVuSans-44" x="298.779297"/>
      <use xlink:href="#DejaVuSans-4f" x="375.78125"/>
      <use xlink:href="#DejaVuSans-49" x="454.492188"/>
     </g>
    </g>
    <g id="patch_42">
     <path d="M 53.57 86.110938 
L 73.57 86.110938 
L 73.57 79.110938 
L 53.57 79.110938 
z
" style="fill: #90ee90"/>
    </g>
    <g id="text_36">
     <!-- Ohne Identifier DOI -->
     <g transform="translate(81.57 86.110938) scale(0.1 -0.1)">
      <use xlink:href="#DejaVuSans-4f"/>
      <use xlink:href="#DejaVuSans-68" x="78.710938"/>
      <use xlink:href="#DejaVuSans-6e" x="142.089844"/>
      <use xlink:href="#DejaVuSans-65" x="205.46875"/>
      <use xlink:href="#DejaVuSans-20" x="266.992188"/>
      <use xlink:href="#DejaVuSans-49" x="298.779297"/>
      <use xlink:href="#DejaVuSans-64" x="328.271484"/>
      <use xlink:href="#DejaVuSans-65" x="391.748047"/>
      <use xlink:href="#DejaVuSans-6e" x="453.271484"/>
      <use xlink:href="#DejaVuSans-74" x="516.650391"/>
      <use xlink:href="#DejaVuSans-69" x="555.859375"/>
      <use xlink:href="#DejaVuSans-66" x="583.642578"/>
      <use xlink:href="#DejaVuSans-69" x="618.847656"/>
      <use xlink:href="#DejaVuSans-65" x="646.630859"/>
      <use xlink:href="#DejaVuSans-72" x="708.154297"/>
      <use xlink:href="#DejaVuSans-20" x="749.267578"/>
      <use xlink:href="#DejaVuSans-44" x="781.054688"/>
      <use xlink:href="#DejaVuSans-4f" x="858.056641"/>
      <use xlink:href="#DejaVuSans-49" x="936.767578"/>
     </g>
    </g>
    <g id="patch_43">
     <path d="M 53.57 100.789063 
L 73.57 100.789063 
L 73.57 93.789063 
L 53.57 93.789063 
z
" style="fill: #f08080"/>
    </g>
    <g id="text_37">
     <!-- Ohne Collection DOI -->
     <g transform="translate(81.57 100.789063) scale(0.1 -0.1)">
      <use xlink:href="#DejaVuSans-4f"/>
      <use xlink:href="#DejaVuSans-68" x="78.710938"/>
      <use xlink:href="#DejaVuSans-6e" x="142.089844"/>
      <use xlink:href="#DejaVuSans-65" x="205.46875"/>
      <use xlink:href="#DejaVuSans-20" x="266.992188"/>
      <use xlink:href="#DejaVuSans-43" x="298.779297"/>
      <use xlink:href="#DejaVuSans-6f" x="368.603516"/>
      <use xlink:href="#DejaVuSans-6c" x="429.785156"/>
      <use xlink:href="#DejaVuSans-6c" x="457.568359"/>
      <use xlink:href="#DejaVuSans-65" x="485.351562"/>
      <use xlink:href="#DejaVuSans-63" x="546.875"/>
      <use xlink:href="#DejaVuSans-74" x="601.855469"/>
      <use xlink:href="#DejaVuSans-69" x="641.064453"/>
      <use xlink:href="#DejaVuSans-6f" x="668.847656"/>
      <use xlink:href="#DejaVuSans-6e" x="730.029297"/>
      <use xlink:href="#DejaVuSans-20" x="793.408203"/>
      <use xlink:href="#DejaVuSans-44" x="825.195312"/>
      <use xlink:href="#DejaVuSans-4f" x="902.197266"/>
      <use xlink:href="#DejaVuSans-49" x="980.908203"/>
     </g>
    </g>
   </g>
  </g>
 </g>
 <defs>
  <clipPath id="p5708e910e6">
   <rect x="44.57" y="10.8" width="405.43" height="292.84"/>
  </clipPath>
 </defs>
</svg>
